<svg width="488" height="347" viewBox="0 0 488 347" fill="none" xmlns="http://www.w3.org/2000/svg">
<rect width="488" height="263" fill="#D2E5FC"/>
<rect width="488" height="347" fill="#D2E5FC"/>
<g opacity="0.4">
<path fill-rule="evenodd" clip-rule="evenodd" d="M362.818 165.274C360.886 160.331 360.056 155.027 360.386 149.73C360.715 144.434 362.196 139.273 364.725 134.607C372.304 118.345 389.068 102.233 411.353 91.6426C433.639 81.052 456.526 78.5424 473.491 83.2103C478.596 84.3192 483.39 86.5526 487.523 89.7478C491.656 92.943 495.024 97.0197 497.383 101.681C503.456 115.283 498.487 133.051 484.132 149.313C484.008 149.451 483.94 149.63 483.94 149.815C483.94 150 484.008 150.179 484.132 150.317L504.209 173.506L466.213 165.475C466.135 165.439 466.049 165.42 465.962 165.42C465.876 165.42 465.79 165.439 465.711 165.475C460.363 169.158 454.723 172.398 448.847 175.162C426.511 185.753 403.674 188.313 386.709 183.645C381.613 182.547 376.826 180.329 372.694 177.151C368.561 173.974 365.188 169.917 362.818 165.274Z" fill="#1A96F0"/>
<path d="M354.812 135.255L354.824 135.234L354.835 135.212C363.507 116.628 382.744 98.1293 408.403 85.9516C434.058 73.7755 460.341 70.9255 479.742 76.2566L479.764 76.2625L479.785 76.2671C485.575 77.5231 491.011 80.0527 495.698 83.6716C500.38 87.2865 504.197 91.8974 506.872 97.1693C513.7 112.468 508.169 132.653 491.666 151.326C491.391 151.633 491.239 152.032 491.239 152.444C491.239 152.855 491.389 153.251 491.662 153.558C491.664 153.56 491.665 153.562 491.667 153.563L513.314 178.533L471.773 169.765C471.604 169.701 471.425 169.669 471.245 169.669C471.029 169.669 470.815 169.715 470.618 169.805L470.554 169.835L470.496 169.874C464.344 174.105 457.856 177.827 451.097 181.003L451.094 181.004C425.379 193.181 399.154 196.088 379.754 190.757L379.732 190.751L379.71 190.746C373.931 189.503 368.501 186.991 363.815 183.392C359.139 179.802 355.32 175.219 352.633 169.976C350.452 164.385 349.515 158.386 349.888 152.396C350.262 146.393 351.942 140.543 354.812 135.255Z" stroke="#1A96F0" stroke-width="1.6165"/>
<path d="M391.227 143.19C391.652 143.059 392.107 143.059 392.532 143.19C392.902 143.406 393.185 143.743 393.335 144.144C393.465 144.535 393.465 144.957 393.335 145.348C393.296 145.562 393.213 145.766 393.092 145.947C392.971 146.129 392.815 146.283 392.632 146.402L394.891 151.422C395.017 151.882 395.017 152.367 394.891 152.827C394.863 153.258 394.686 153.667 394.389 153.981C394.137 154.286 393.778 154.484 393.385 154.533C392.948 154.695 392.467 154.695 392.03 154.533C391.81 154.389 391.622 154.201 391.478 153.981C391.343 153.792 391.225 153.59 391.127 153.379L388.918 148.36L382.393 151.321L384.602 156.089C384.63 156.306 384.63 156.525 384.602 156.742C384.649 156.957 384.649 157.18 384.602 157.394C384.601 157.63 384.552 157.864 384.457 158.08C384.362 158.296 384.223 158.49 384.05 158.649C383.916 158.799 383.754 158.92 383.573 159.006C383.392 159.093 383.196 159.142 382.996 159.151C382.559 159.153 382.129 159.05 381.741 158.85C381.312 158.595 380.977 158.207 380.787 157.746L374.162 143.341C374.064 143.111 374.013 142.863 374.013 142.613C374.013 142.363 374.064 142.115 374.162 141.885C374.267 141.447 374.493 141.047 374.814 140.731C374.965 140.568 375.147 140.438 375.35 140.349C375.553 140.26 375.772 140.215 375.994 140.215C376.215 140.215 376.434 140.26 376.637 140.349C376.84 140.438 377.023 140.568 377.173 140.731L377.474 141.082V141.484L380.386 147.808L386.86 144.796L384.1 138.823C384 138.445 384 138.047 384.1 137.669C384.09 137.209 384.251 136.762 384.552 136.414C384.823 136.088 385.193 135.859 385.606 135.762C385.998 135.638 386.418 135.638 386.81 135.762C387.246 135.961 387.587 136.32 387.764 136.765L391.227 143.19ZM412.86 143.792C412.986 144.184 412.986 144.605 412.86 144.997C412.785 145.356 412.611 145.686 412.358 145.951C412.142 146.205 411.836 146.366 411.505 146.402C411.117 146.549 410.688 146.549 410.3 146.402C409.924 146.234 409.608 145.953 409.397 145.599C409.226 145.248 409.024 144.912 408.794 144.595C408.092 143.642 407.389 142.738 406.536 141.785L403.123 143.391L399.71 144.997V146.703C399.71 147.306 399.71 147.758 400.061 148.31C400.037 148.728 400.037 149.146 400.061 149.564C400.186 149.99 400.186 150.443 400.061 150.869C399.943 151.313 399.678 151.702 399.308 151.974C398.968 152.101 398.594 152.101 398.254 151.974C397.884 151.92 397.536 151.763 397.25 151.522C396.88 151.251 396.615 150.861 396.497 150.418C396.294 149.813 396.143 149.191 396.046 148.561L395.744 146.703C395.137 143.137 394.801 139.53 394.741 135.912C394.69 135.613 394.69 135.308 394.741 135.009V133.101C394.689 132.769 394.689 132.43 394.741 132.098C394.787 131.765 394.889 131.443 395.042 131.144C395.238 130.851 395.518 130.623 395.845 130.491C396.279 130.316 396.765 130.316 397.2 130.491C399.016 131.17 400.71 132.136 402.219 133.352C403.776 134.542 405.267 135.816 406.686 137.167L407.79 136.665C408.195 136.515 408.64 136.515 409.045 136.665C409.388 136.794 409.685 137.021 409.899 137.318C410.058 137.596 410.16 137.903 410.2 138.221C410.273 138.535 410.273 138.861 410.2 139.175C410.043 139.486 409.82 139.76 409.547 139.978L410.953 141.734C411.404 142.337 411.806 142.989 412.207 143.642L412.86 143.792ZM403.675 138.773C402.969 138.068 402.214 137.414 401.416 136.816C400.659 136.17 399.853 135.583 399.007 135.059V140.881L401.266 139.777L403.675 138.773ZM424.555 136.063C425.026 136.083 425.488 136.203 425.91 136.414C426.234 136.602 426.496 136.881 426.663 137.217C426.789 137.574 426.789 137.964 426.663 138.321C426.522 138.768 426.262 139.167 425.91 139.476C425.688 139.67 425.433 139.823 425.157 139.928L423.802 140.58L421.543 141.634L418.18 143.19L417.176 143.692C417.002 143.767 416.814 143.805 416.624 143.805C416.434 143.805 416.247 143.767 416.072 143.692C415.729 143.592 415.428 143.38 415.219 143.09C414.923 142.754 414.67 142.383 414.466 141.985C414.225 141.588 414.023 141.168 413.864 140.731L413.362 139.677L412.509 137.769L411.505 135.511C411.204 134.758 410.852 134.055 410.501 133.302L409.648 131.395C409.196 130.391 408.794 129.588 408.543 128.986C408.347 128.511 408.179 128.025 408.041 127.53C407.969 127.233 407.969 126.923 408.041 126.627C408.155 126.371 408.308 126.134 408.493 125.924C408.676 125.706 408.921 125.548 409.196 125.472H410.049C410.313 125.406 410.589 125.406 410.852 125.472C410.983 125.525 411.101 125.607 411.196 125.711C411.292 125.815 411.363 125.939 411.404 126.075C412.458 128.283 413.512 130.491 414.466 132.7C415.42 134.908 416.424 137.067 417.427 139.275L420.891 137.619L424.404 135.912L424.555 136.063ZM438.207 129.839C438.66 129.826 439.11 129.93 439.512 130.14C439.845 130.318 440.11 130.603 440.265 130.948C440.419 131.293 440.454 131.68 440.365 132.047C440.218 132.504 439.939 132.905 439.562 133.202C439.352 133.387 439.115 133.539 438.859 133.654L437.454 134.306L435.195 135.36L431.832 136.916C431.514 137.113 431.178 137.281 430.829 137.418C430.654 137.493 430.466 137.531 430.277 137.531C430.087 137.531 429.899 137.493 429.724 137.418C429.549 137.379 429.384 137.306 429.237 137.202C429.091 137.099 428.966 136.967 428.871 136.816C428.575 136.48 428.322 136.109 428.118 135.711L427.516 134.457C427.341 134.116 427.19 133.764 427.064 133.403C426.763 132.85 426.512 132.198 426.161 131.495L425.408 129.287C425.107 128.534 424.755 127.831 424.404 127.078L423.551 125.171C423.099 124.167 422.748 123.414 422.497 122.762C422.266 122.296 422.081 121.808 421.945 121.306C421.841 121.014 421.841 120.695 421.945 120.403C422.02 120.14 422.158 119.899 422.346 119.7C422.542 119.508 422.784 119.37 423.049 119.299C423.331 119.247 423.62 119.247 423.902 119.299C424.165 119.226 424.442 119.226 424.705 119.299C424.951 119.432 425.146 119.644 425.257 119.901C426.311 122.109 427.365 124.318 428.319 126.526C429.273 128.735 430.277 130.943 431.28 133.101L434.744 131.445L438.257 129.739L438.207 129.839ZM454.469 116.99C454.569 118.192 454.569 119.401 454.469 120.604C454.465 121.796 454.279 122.981 453.917 124.117C453.585 125.217 453.039 126.24 452.311 127.129C451.551 128.086 450.569 128.844 449.45 129.337L447.492 129.99C446.992 130.039 446.487 130.039 445.987 129.99C445.177 130.169 444.337 130.169 443.527 129.99C442.746 129.741 442.003 129.386 441.319 128.935C440.662 128.445 440.071 127.872 439.562 127.229C439.044 126.625 438.589 125.969 438.207 125.271C437.524 124.09 437.049 122.799 436.801 121.457C436.552 120.113 436.552 118.735 436.801 117.391C436.95 116.037 437.359 114.725 438.006 113.526C438.623 112.313 439.539 111.277 440.666 110.515C441.285 110.105 441.94 109.752 442.624 109.461C443.304 109.211 444.012 109.043 444.732 108.959H446.489L448.195 109.26C448.944 109.509 449.654 109.864 450.303 110.314C450.953 110.756 451.529 111.298 452.01 111.92C452.595 112.686 453.099 113.51 453.515 114.38C453.867 115.183 454.168 116.086 454.469 116.99ZM449.45 125.02C449.883 124.554 450.224 124.009 450.454 123.414C450.697 122.818 450.865 122.195 450.956 121.557C451.032 120.924 451.032 120.283 450.956 119.65V117.743C450.733 116.974 450.465 116.22 450.153 115.484C449.829 114.74 449.329 114.085 448.697 113.577C448.173 113.111 447.53 112.798 446.84 112.673C446.145 112.524 445.427 112.524 444.732 112.673C444.031 112.772 443.361 113.03 442.774 113.426C442.185 113.806 441.715 114.346 441.419 114.982C440.992 115.848 440.72 116.782 440.616 117.743C440.467 118.707 440.467 119.689 440.616 120.654C440.757 121.465 440.993 122.257 441.319 123.013C441.651 123.783 442.128 124.481 442.724 125.071C443.183 125.491 443.709 125.83 444.28 126.075C444.857 126.303 445.467 126.439 446.087 126.476C446.707 126.481 447.321 126.362 447.894 126.125C448.468 125.867 448.981 125.491 449.4 125.02H449.45ZM462.249 120.152C462.394 120.592 462.394 121.067 462.249 121.507C462.195 121.908 462.04 122.288 461.797 122.611C461.568 122.938 461.256 123.197 460.894 123.364C460.53 123.524 460.137 123.61 459.739 123.615C459.337 123.659 458.932 123.571 458.585 123.364C458.184 123.141 457.854 122.811 457.631 122.41C457.469 121.991 457.469 121.525 457.631 121.106C457.674 120.687 457.83 120.288 458.083 119.951C458.355 119.647 458.677 119.392 459.037 119.198C459.409 119.004 459.822 118.901 460.241 118.897C460.62 118.799 461.017 118.799 461.396 118.897C461.614 119.039 461.802 119.223 461.949 119.438C462.095 119.654 462.197 119.896 462.249 120.152ZM468.623 117.241C468.765 117.664 468.765 118.122 468.623 118.546C468.588 118.951 468.431 119.336 468.172 119.65C467.942 119.976 467.63 120.236 467.268 120.403C466.916 120.603 466.518 120.706 466.114 120.704C465.714 120.722 465.316 120.635 464.959 120.453C464.564 120.239 464.248 119.905 464.056 119.499C463.916 119.306 463.817 119.086 463.766 118.853C463.714 118.62 463.71 118.379 463.755 118.144C463.799 117.741 463.955 117.358 464.206 117.04C464.464 116.721 464.79 116.464 465.16 116.287C465.538 116.102 465.946 115.983 466.365 115.936C466.769 115.933 467.167 116.037 467.519 116.237C467.764 116.316 467.989 116.446 468.18 116.619C468.37 116.793 468.521 117.004 468.623 117.241ZM472.839 116.387C472.717 115.961 472.717 115.509 472.839 115.082C472.884 114.695 473.041 114.328 473.291 114.028C473.53 113.757 473.82 113.535 474.144 113.376C474.491 113.295 474.852 113.295 475.198 113.376C475.555 113.417 475.898 113.537 476.202 113.727C476.583 113.944 476.883 114.278 477.056 114.681C477.201 114.96 477.277 115.27 477.277 115.584C477.277 115.899 477.201 116.209 477.056 116.488C476.843 117.008 476.451 117.435 475.951 117.692C475.413 117.869 474.833 117.869 474.295 117.692C473.975 117.589 473.68 117.419 473.429 117.194C473.178 116.969 472.977 116.695 472.839 116.387ZM466.013 100.928C465.904 100.466 465.904 99.985 466.013 99.5229C466.149 99.167 466.42 98.8787 466.766 98.7198C466.931 98.6434 467.111 98.6038 467.293 98.6038C467.475 98.6038 467.655 98.6434 467.82 98.7198C468.276 98.8162 468.695 99.0428 469.025 99.3723C469.527 100.309 469.978 101.213 470.38 102.083C470.832 102.936 471.233 103.739 471.585 104.542C471.978 105.309 472.329 106.097 472.639 106.901L473.693 109.31C473.816 109.551 473.88 109.818 473.88 110.088C473.88 110.359 473.816 110.626 473.693 110.866C473.612 111.085 473.485 111.283 473.321 111.448C473.156 111.613 472.958 111.74 472.739 111.82C472.304 111.996 471.819 111.996 471.384 111.82C471.13 111.759 470.897 111.634 470.704 111.459C470.511 111.284 470.365 111.063 470.28 110.816L465.813 101.179L466.013 100.928ZM480.619 112.924C480.497 112.498 480.497 112.046 480.619 111.619C480.664 111.231 480.821 110.865 481.071 110.565C481.307 110.291 481.598 110.069 481.924 109.913C482.27 109.821 482.633 109.821 482.978 109.913C483.378 109.936 483.764 110.071 484.092 110.301C484.42 110.532 484.678 110.849 484.835 111.218C484.981 111.497 485.056 111.807 485.056 112.121C485.056 112.436 484.981 112.746 484.835 113.025C484.644 113.429 484.343 113.771 483.965 114.01C483.587 114.249 483.149 114.376 482.702 114.376C482.255 114.376 481.817 114.249 481.439 114.01C481.062 113.771 480.76 113.429 480.569 113.025L480.619 112.924ZM473.843 97.4148C473.714 96.9724 473.714 96.502 473.843 96.0596C473.999 95.7161 474.263 95.4337 474.596 95.2566C474.77 95.1791 474.958 95.139 475.148 95.139C475.339 95.139 475.527 95.1791 475.7 95.2566C476.157 95.3529 476.575 95.5796 476.905 95.9091C477.373 96.8794 477.825 97.7829 478.26 98.6194C478.662 99.4225 479.063 100.276 479.415 101.079C479.766 101.882 480.168 102.635 480.519 103.438L481.523 105.847C481.635 106.091 481.694 106.356 481.694 106.625C481.694 106.894 481.635 107.159 481.523 107.403C481.308 107.827 480.954 108.164 480.519 108.357C480.084 108.533 479.598 108.533 479.164 108.357C478.912 108.275 478.682 108.138 478.491 107.956C478.3 107.773 478.152 107.55 478.059 107.303L473.643 97.716L473.843 97.4148Z" fill="white"/>
</g>
<g opacity="0.4">
<path fill-rule="evenodd" clip-rule="evenodd" d="M58.8176 189.274C56.8863 184.331 56.0565 179.027 56.3859 173.73C56.7153 168.434 58.1961 163.273 60.7249 158.607C68.3039 142.345 85.0681 126.233 107.353 115.643C129.639 105.052 152.526 102.542 169.491 107.21C174.596 108.319 179.39 110.553 183.523 113.748C187.656 116.943 191.024 121.02 193.383 125.681C199.456 139.283 194.487 157.051 180.132 173.313C180.008 173.451 179.94 173.63 179.94 173.815C179.94 174 180.008 174.179 180.132 174.317L200.209 197.506L162.213 189.475C162.135 189.439 162.049 189.42 161.962 189.42C161.876 189.42 161.79 189.439 161.711 189.475C156.363 193.158 150.723 196.398 144.847 199.162C122.511 209.753 99.674 212.313 82.709 207.645C77.6134 206.547 72.8259 204.329 68.6936 201.151C64.5613 197.974 61.1878 193.917 58.8176 189.274Z" fill="#1A96F0"/>
<path d="M50.8125 159.255L50.8242 159.234L50.8345 159.212C59.5068 140.628 78.7435 122.129 104.403 109.952C130.058 97.7755 156.341 94.9255 175.742 100.257L175.764 100.262L175.785 100.267C181.575 101.523 187.011 104.053 191.698 107.672C196.38 111.286 200.197 115.897 202.872 121.169C209.7 136.468 204.169 156.653 187.666 175.326C187.391 175.633 187.239 176.032 187.239 176.444C187.239 176.855 187.389 177.251 187.662 177.558C187.664 177.56 187.665 177.562 187.667 177.563L209.314 202.533L167.773 193.764C167.604 193.701 167.425 193.669 167.245 193.669C167.029 193.669 166.815 193.715 166.618 193.805L166.554 193.835L166.496 193.874C160.344 198.105 153.856 201.827 147.097 205.003L147.094 205.004C121.379 217.181 95.1541 220.088 75.7543 214.757L75.7324 214.751L75.7102 214.746C69.931 213.503 64.5014 210.991 59.815 207.392C55.1393 203.801 51.3202 199.219 48.6332 193.976C46.4519 188.385 45.5151 182.386 45.8881 176.396C46.262 170.393 47.9425 164.543 50.8125 159.255Z" stroke="#1A96F0" stroke-width="1.6165"/>
<path d="M87.2271 167.19C87.6521 167.059 88.107 167.059 88.532 167.19C88.9016 167.406 89.1853 167.743 89.3351 168.144C89.4653 168.535 89.4653 168.957 89.3351 169.348C89.2956 169.562 89.2129 169.766 89.0921 169.947C88.9713 170.129 88.8149 170.283 88.6324 170.402L90.8911 175.422C91.017 175.882 91.017 176.367 90.8911 176.827C90.8633 177.258 90.6858 177.667 90.3892 177.981C90.1369 178.286 89.778 178.484 89.3853 178.533C88.948 178.695 88.4674 178.695 88.0301 178.533C87.81 178.389 87.622 178.201 87.478 177.981C87.3425 177.792 87.2249 177.59 87.1267 177.379L84.9182 172.36L78.3932 175.321L80.6017 180.089C80.6301 180.306 80.6301 180.525 80.6017 180.742C80.6494 180.957 80.6494 181.179 80.6017 181.394C80.6014 181.63 80.5522 181.864 80.4572 182.08C80.3622 182.296 80.2234 182.49 80.0496 182.649C79.9162 182.799 79.7542 182.92 79.5732 183.006C79.3922 183.093 79.1958 183.142 78.9956 183.151C78.5591 183.153 78.1287 183.05 77.7408 182.85C77.3119 182.595 76.9773 182.207 76.7871 181.746L70.1617 167.341C70.0637 167.11 70.0132 166.863 70.0132 166.613C70.0132 166.363 70.0637 166.115 70.1617 165.885C70.267 165.447 70.493 165.047 70.8142 164.731C70.9646 164.568 71.147 164.438 71.35 164.349C71.553 164.26 71.7722 164.215 71.9937 164.215C72.2153 164.215 72.4345 164.26 72.6375 164.349C72.8404 164.438 73.0229 164.568 73.1733 164.731L73.4744 165.082V165.483L76.3856 171.808L82.8603 168.796L80.0998 162.823C79.9998 162.445 79.9998 162.047 80.0998 161.669C80.0898 161.209 80.2508 160.762 80.5515 160.414C80.8229 160.088 81.1928 159.859 81.6055 159.762C81.9976 159.638 82.4181 159.638 82.8101 159.762C83.2455 159.961 83.5872 160.32 83.7638 160.765L87.2271 167.19ZM108.86 167.792C108.986 168.184 108.986 168.605 108.86 168.997C108.785 169.355 108.611 169.686 108.358 169.951C108.142 170.205 107.836 170.366 107.505 170.402C107.116 170.549 106.688 170.549 106.3 170.402C105.924 170.234 105.608 169.953 105.397 169.599C105.226 169.247 105.024 168.912 104.794 168.595C104.092 167.642 103.389 166.738 102.536 165.785L99.1226 167.391L95.7095 168.997V170.703C95.7095 171.306 95.7095 171.757 96.0609 172.31C96.0372 172.728 96.0372 173.146 96.0609 173.564C96.1863 173.99 96.1863 174.443 96.0609 174.869C95.9434 175.313 95.6777 175.702 95.308 175.974C94.9681 176.101 94.5938 176.101 94.2539 175.974C93.8838 175.919 93.5361 175.763 93.2501 175.522C92.8804 175.251 92.6147 174.861 92.4972 174.418C92.2937 173.813 92.1426 173.191 92.0455 172.561L91.7443 170.703C91.1365 167.137 90.8009 163.529 90.7405 159.912C90.69 159.613 90.69 159.308 90.7405 159.009V157.101C90.6887 156.769 90.6887 156.43 90.7405 156.098C90.787 155.765 90.8888 155.443 91.0416 155.144C91.2378 154.851 91.5176 154.623 91.8447 154.491C92.2794 154.316 92.7653 154.316 93.1999 154.491C95.0156 155.17 96.7103 156.136 98.2191 157.352C99.776 158.542 101.267 159.816 102.686 161.167L103.79 160.665C104.195 160.515 104.64 160.515 105.045 160.665C105.388 160.794 105.685 161.021 105.899 161.318C106.058 161.596 106.16 161.903 106.2 162.221C106.273 162.535 106.273 162.861 106.2 163.175C106.043 163.486 105.82 163.76 105.547 163.978L106.953 165.734C107.404 166.337 107.806 166.989 108.207 167.642L108.86 167.792ZM99.6747 162.773C98.9692 162.068 98.2144 161.414 97.4161 160.816C96.6587 160.17 95.8533 159.583 95.0068 159.059V164.881L97.2655 163.777L99.6747 162.773ZM120.555 160.063C121.026 160.083 121.488 160.203 121.91 160.414C122.234 160.602 122.496 160.881 122.663 161.217C122.789 161.574 122.789 161.964 122.663 162.321C122.522 162.768 122.262 163.167 121.91 163.476C121.688 163.67 121.433 163.823 121.157 163.928L119.802 164.58L117.543 165.634L114.18 167.19L113.176 167.692C113.002 167.766 112.814 167.805 112.624 167.805C112.434 167.805 112.247 167.766 112.072 167.692C111.729 167.592 111.428 167.38 111.219 167.09C110.923 166.754 110.67 166.383 110.466 165.985C110.225 165.588 110.023 165.167 109.864 164.731L109.362 163.677L108.509 161.769L107.505 159.511C107.204 158.758 106.852 158.055 106.501 157.302L105.648 155.395C105.196 154.391 104.794 153.588 104.543 152.986C104.347 152.511 104.179 152.025 104.041 151.53C103.969 151.233 103.969 150.923 104.041 150.627C104.155 150.371 104.308 150.134 104.493 149.924C104.676 149.706 104.921 149.548 105.196 149.472H106.049C106.313 149.406 106.589 149.406 106.852 149.472C106.983 149.525 107.101 149.607 107.196 149.711C107.291 149.815 107.363 149.939 107.404 150.074C108.458 152.283 109.512 154.491 110.466 156.7C111.42 158.908 112.424 161.067 113.427 163.275L116.891 161.619L120.404 159.912L120.555 160.063ZM134.207 153.839C134.66 153.826 135.11 153.93 135.512 154.14C135.845 154.318 136.11 154.603 136.265 154.948C136.419 155.293 136.454 155.68 136.365 156.047C136.218 156.503 135.939 156.905 135.562 157.202C135.352 157.387 135.115 157.539 134.859 157.654L133.454 158.306L131.195 159.36L127.832 160.916C127.514 161.113 127.178 161.281 126.829 161.418C126.654 161.492 126.466 161.531 126.277 161.531C126.087 161.531 125.899 161.492 125.724 161.418C125.549 161.379 125.384 161.306 125.237 161.202C125.091 161.099 124.966 160.967 124.871 160.816C124.575 160.48 124.322 160.109 124.118 159.711L123.516 158.457C123.341 158.116 123.19 157.764 123.064 157.403C122.763 156.85 122.512 156.198 122.161 155.495L121.408 153.287C121.107 152.534 120.755 151.831 120.404 151.078L119.551 149.171C119.099 148.167 118.748 147.414 118.497 146.762C118.266 146.296 118.081 145.808 117.945 145.306C117.841 145.014 117.841 144.695 117.945 144.403C118.02 144.14 118.158 143.899 118.346 143.7C118.542 143.508 118.784 143.37 119.049 143.299C119.331 143.247 119.62 143.247 119.902 143.299C120.165 143.226 120.442 143.226 120.705 143.299C120.951 143.432 121.146 143.644 121.257 143.901C122.311 146.109 123.365 148.318 124.319 150.526C125.273 152.735 126.277 154.943 127.28 157.101L130.744 155.445L134.257 153.738L134.207 153.839ZM150.469 140.99C150.569 142.192 150.569 143.401 150.469 144.604C150.465 145.796 150.279 146.981 149.917 148.117C149.585 149.217 149.039 150.24 148.311 151.129C147.551 152.086 146.569 152.844 145.45 153.337L143.492 153.989C142.992 154.039 142.487 154.039 141.987 153.989C141.177 154.169 140.337 154.169 139.527 153.989C138.746 153.741 138.003 153.386 137.319 152.935C136.662 152.445 136.071 151.872 135.562 151.229C135.043 150.625 134.589 149.969 134.207 149.271C133.524 148.09 133.049 146.799 132.801 145.457C132.552 144.113 132.552 142.735 132.801 141.391C132.95 140.037 133.359 138.725 134.006 137.526C134.623 136.313 135.539 135.277 136.666 134.515C137.285 134.104 137.94 133.752 138.624 133.461C139.304 133.211 140.012 133.043 140.732 132.959H142.489L144.195 133.26C144.944 133.509 145.654 133.864 146.303 134.314C146.953 134.756 147.529 135.298 148.01 135.92C148.595 136.686 149.099 137.51 149.515 138.38C149.867 139.183 150.168 140.086 150.469 140.99ZM145.45 149.02C145.883 148.554 146.224 148.009 146.454 147.414C146.697 146.818 146.865 146.195 146.956 145.557C147.032 144.924 147.032 144.283 146.956 143.65V141.743C146.733 140.974 146.465 140.22 146.153 139.484C145.829 138.74 145.329 138.085 144.697 137.577C144.173 137.11 143.53 136.798 142.84 136.673C142.145 136.524 141.427 136.524 140.732 136.673C140.031 136.772 139.361 137.03 138.774 137.426C138.185 137.806 137.715 138.346 137.419 138.982C136.992 139.848 136.72 140.782 136.616 141.743C136.467 142.707 136.467 143.689 136.616 144.654C136.757 145.465 136.993 146.257 137.319 147.013C137.651 147.783 138.128 148.481 138.724 149.071C139.183 149.49 139.709 149.83 140.28 150.074C140.857 150.303 141.467 150.439 142.087 150.476C142.707 150.481 143.321 150.362 143.894 150.125C144.468 149.867 144.981 149.491 145.4 149.02H145.45ZM158.249 144.152C158.394 144.592 158.394 145.067 158.249 145.507C158.195 145.908 158.04 146.288 157.797 146.611C157.568 146.938 157.256 147.197 156.894 147.364C156.53 147.524 156.137 147.61 155.739 147.615C155.337 147.659 154.932 147.571 154.585 147.364C154.184 147.141 153.854 146.811 153.631 146.41C153.469 145.991 153.469 145.525 153.631 145.105C153.674 144.687 153.83 144.287 154.083 143.951C154.355 143.647 154.677 143.392 155.037 143.198C155.409 143.004 155.822 142.901 156.241 142.897C156.62 142.799 157.017 142.799 157.396 142.897C157.614 143.039 157.802 143.223 157.949 143.438C158.095 143.654 158.197 143.896 158.249 144.152ZM164.623 141.241C164.765 141.664 164.765 142.122 164.623 142.546C164.588 142.951 164.431 143.336 164.172 143.65C163.942 143.976 163.63 144.236 163.268 144.403C162.916 144.603 162.518 144.706 162.114 144.704C161.714 144.722 161.316 144.635 160.959 144.453C160.564 144.239 160.248 143.905 160.056 143.499C159.916 143.306 159.817 143.086 159.766 142.853C159.714 142.62 159.71 142.379 159.755 142.144C159.798 141.741 159.955 141.358 160.206 141.04C160.464 140.721 160.79 140.464 161.16 140.287C161.538 140.102 161.946 139.983 162.365 139.936C162.769 139.933 163.167 140.037 163.519 140.237C163.764 140.316 163.989 140.446 164.18 140.619C164.37 140.793 164.521 141.004 164.623 141.241ZM168.839 140.387C168.717 139.961 168.717 139.509 168.839 139.082C168.884 138.695 169.041 138.328 169.291 138.028C169.53 137.757 169.82 137.535 170.144 137.376C170.491 137.295 170.852 137.295 171.198 137.376C171.555 137.417 171.898 137.537 172.202 137.727C172.583 137.944 172.883 138.278 173.056 138.681C173.201 138.96 173.277 139.27 173.277 139.584C173.277 139.899 173.201 140.209 173.056 140.488C172.843 141.008 172.451 141.435 171.951 141.692C171.413 141.869 170.833 141.869 170.295 141.692C169.975 141.589 169.68 141.419 169.429 141.194C169.178 140.969 168.977 140.695 168.839 140.387ZM162.013 124.928C161.904 124.466 161.904 123.985 162.013 123.523C162.149 123.167 162.42 122.879 162.766 122.72C162.931 122.643 163.111 122.604 163.293 122.604C163.475 122.604 163.655 122.643 163.82 122.72C164.276 122.816 164.695 123.043 165.025 123.372C165.527 124.309 165.978 125.213 166.38 126.083C166.832 126.936 167.233 127.739 167.585 128.542C167.978 129.309 168.329 130.097 168.639 130.901L169.693 133.31C169.816 133.551 169.88 133.818 169.88 134.088C169.88 134.359 169.816 134.626 169.693 134.866C169.612 135.085 169.485 135.283 169.321 135.448C169.156 135.613 168.958 135.74 168.739 135.82C168.304 135.996 167.818 135.996 167.384 135.82C167.13 135.759 166.896 135.634 166.704 135.459C166.511 135.284 166.365 135.063 166.28 134.816L161.813 125.179L162.013 124.928ZM176.619 136.924C176.496 136.498 176.496 136.046 176.619 135.619C176.664 135.231 176.821 134.865 177.071 134.565C177.307 134.291 177.598 134.069 177.924 133.913C178.27 133.821 178.633 133.821 178.978 133.913C179.378 133.936 179.764 134.071 180.092 134.301C180.42 134.532 180.678 134.849 180.835 135.218C180.98 135.497 181.056 135.807 181.056 136.121C181.056 136.436 180.98 136.746 180.835 137.025C180.644 137.429 180.343 137.771 179.965 138.01C179.587 138.249 179.149 138.376 178.702 138.376C178.255 138.376 177.817 138.249 177.439 138.01C177.062 137.771 176.76 137.429 176.569 137.025L176.619 136.924ZM169.843 121.415C169.714 120.972 169.714 120.502 169.843 120.06C169.999 119.716 170.263 119.434 170.596 119.257C170.77 119.179 170.958 119.139 171.148 119.139C171.339 119.139 171.527 119.179 171.7 119.257C172.157 119.353 172.575 119.58 172.905 119.909C173.373 120.879 173.825 121.783 174.26 122.619C174.662 123.422 175.063 124.276 175.415 125.079C175.766 125.882 176.167 126.635 176.519 127.438L177.523 129.847C177.635 130.091 177.693 130.356 177.693 130.625C177.693 130.894 177.635 131.159 177.523 131.403C177.308 131.827 176.954 132.164 176.519 132.357C176.084 132.532 175.598 132.532 175.164 132.357C174.912 132.275 174.682 132.138 174.491 131.956C174.3 131.773 174.152 131.55 174.059 131.303L169.643 121.716L169.843 121.415Z" fill="white"/>
</g>
<g opacity="0.4">
<path fill-rule="evenodd" clip-rule="evenodd" d="M210.818 37.2744C208.886 32.3314 208.056 27.0267 208.386 21.7301C208.715 16.4336 210.196 11.2725 212.725 6.60699C220.304 -9.65525 237.068 -25.7669 259.353 -36.3574C281.639 -46.948 304.526 -49.4576 321.491 -44.7897C326.596 -43.6808 331.39 -41.4474 335.523 -38.2522C339.656 -35.057 343.024 -30.9803 345.383 -26.319C351.456 -12.717 346.487 5.05104 332.132 21.3133C332.008 21.4513 331.94 21.63 331.94 21.8152C331.94 22.0004 332.008 22.1791 332.132 22.3171L352.209 45.5059L314.213 37.4752C314.135 37.4391 314.049 37.4204 313.962 37.4204C313.876 37.4204 313.79 37.4391 313.711 37.4752C308.363 41.1578 302.723 44.3975 296.847 47.1622C274.511 57.7528 251.674 60.3126 234.709 55.6447C229.613 54.5467 224.826 52.3287 220.694 49.1513C216.561 45.974 213.188 41.9169 210.818 37.2744Z" fill="#1A96F0"/>
<path d="M202.812 7.25545L202.824 7.23391L202.835 7.2117C211.507 -11.3717 230.744 -29.8707 256.403 -42.0485C282.058 -54.2245 308.341 -57.0745 327.742 -51.7434L327.764 -51.7376L327.785 -51.7329C333.575 -50.4769 339.011 -47.9473 343.698 -44.3284C348.38 -40.7135 352.197 -36.1026 354.872 -30.8307C361.7 -15.5322 356.169 4.65321 339.666 23.3259C339.391 23.6334 339.239 24.0315 339.239 24.4441C339.239 24.8546 339.389 25.2509 339.662 25.5579C339.664 25.5597 339.665 25.5616 339.667 25.5634L361.314 50.533L319.773 41.7645C319.604 41.7013 319.425 41.6688 319.245 41.6688C319.029 41.6688 318.815 41.7153 318.618 41.8054L318.554 41.8346L318.496 41.8743C312.344 46.1049 305.856 49.8268 299.097 53.0029L299.094 53.004C273.379 65.1812 247.154 68.088 227.754 62.7572L227.732 62.7512L227.71 62.7464C221.931 61.5028 216.501 58.9906 211.815 55.3919C207.139 51.8015 203.32 47.2193 200.633 41.9763C198.452 36.3846 197.515 30.3858 197.888 24.3961C198.262 18.3929 199.942 12.5435 202.812 7.25545Z" stroke="#1A96F0" stroke-width="1.6165"/>
<path d="M239.227 15.19C239.652 15.0585 240.107 15.0585 240.532 15.19C240.902 15.4058 241.185 15.7427 241.335 16.1436C241.465 16.5346 241.465 16.9573 241.335 17.3482C241.296 17.5624 241.213 17.7663 241.092 17.9475C240.971 18.1287 240.815 18.2834 240.632 18.4023L242.891 23.4215C243.017 23.8815 243.017 24.3669 242.891 24.8269C242.863 25.2584 242.686 25.6667 242.389 25.9813C242.137 26.2863 241.778 26.4837 241.385 26.5334C240.948 26.6948 240.467 26.6948 240.03 26.5334C239.81 26.3894 239.622 26.2014 239.478 25.9813C239.343 25.7918 239.225 25.5902 239.127 25.379L236.918 20.3598L230.393 23.3211L232.602 28.0894C232.63 28.3059 232.63 28.5253 232.602 28.7419C232.649 28.9568 232.649 29.1795 232.602 29.3944C232.601 29.6303 232.552 29.8637 232.457 30.0797C232.362 30.2956 232.223 30.4895 232.05 30.6492C231.916 30.7988 231.754 30.9203 231.573 31.0064C231.392 31.0926 231.196 31.1418 230.996 31.1511C230.559 31.1532 230.129 31.0499 229.741 30.8499C229.312 30.5946 228.977 30.2072 228.787 29.7457L222.162 15.3406C222.064 15.1105 222.013 14.8629 222.013 14.6128C222.013 14.3627 222.064 14.1151 222.162 13.885C222.267 13.4468 222.493 13.0468 222.814 12.7306C222.965 12.5679 223.147 12.4381 223.35 12.3493C223.553 12.2605 223.772 12.2146 223.994 12.2146C224.215 12.2146 224.434 12.2605 224.637 12.3493C224.84 12.4381 225.023 12.5679 225.173 12.7306L225.474 13.0819V13.4835L228.386 19.8077L234.86 16.7961L232.1 10.8233C232 10.445 232 10.0472 232.1 9.66886C232.09 9.20909 232.251 8.76196 232.552 8.41405C232.823 8.08811 233.193 7.85914 233.606 7.76157C233.998 7.63827 234.418 7.63827 234.81 7.76157C235.246 7.96074 235.587 8.32036 235.764 8.7654L239.227 15.19ZM260.86 15.7923C260.986 16.1839 260.986 16.6053 260.86 16.9969C260.785 17.3555 260.611 17.6859 260.358 17.9506C260.142 18.2047 259.836 18.3664 259.505 18.4023C259.117 18.5487 258.688 18.5487 258.3 18.4023C257.924 18.2338 257.608 17.9534 257.397 17.5992C257.226 17.2475 257.024 16.9116 256.794 16.5954C256.092 15.6417 255.389 14.7383 254.536 13.7846L251.123 15.3908L247.71 16.9969V18.7035C247.71 19.3058 247.71 19.7575 248.061 20.3096C248.037 20.7275 248.037 21.1465 248.061 21.5644C248.186 21.9903 248.186 22.4435 248.061 22.8694C247.943 23.3127 247.678 23.7023 247.308 23.9736C246.968 24.1006 246.594 24.1006 246.254 23.9736C245.884 23.9195 245.536 23.7631 245.25 23.5219C244.88 23.2506 244.615 22.8609 244.497 22.4177C244.294 21.8127 244.143 21.1914 244.046 20.5605L243.744 18.7035C243.137 15.137 242.801 11.5295 242.741 7.91214C242.69 7.61311 242.69 7.30771 242.741 7.00868V5.10139C242.689 4.76879 242.689 4.43014 242.741 4.09753C242.787 3.76508 242.889 3.44278 243.042 3.14391C243.238 2.85072 243.518 2.62333 243.845 2.49139C244.279 2.31557 244.765 2.31557 245.2 2.49139C247.016 3.16966 248.71 4.13565 250.219 5.35233C251.776 6.54219 253.267 7.81561 254.686 9.16695L255.79 8.66503C256.195 8.51514 256.64 8.51514 257.045 8.66503C257.388 8.79373 257.685 9.02071 257.899 9.31752C258.058 9.59563 258.16 9.90278 258.2 10.221C258.273 10.5347 258.273 10.8609 258.2 11.1746C258.043 11.4864 257.82 11.7604 257.547 11.9777L258.953 13.7344C259.404 14.3368 259.806 14.9892 260.207 15.6417L260.86 15.7923ZM251.675 10.7731C250.969 10.0679 250.214 9.4137 249.416 8.8156C248.659 8.16978 247.853 7.58252 247.007 7.05888V12.8811L249.266 11.7769L251.675 10.7731ZM272.555 8.06271C273.026 8.08346 273.488 8.20317 273.91 8.41405C274.234 8.60193 274.496 8.88128 274.663 9.21715C274.789 9.57439 274.789 9.96414 274.663 10.3214C274.522 10.7678 274.262 11.167 273.91 11.4758C273.688 11.6703 273.433 11.8233 273.157 11.9275L271.802 12.58L269.543 13.634L266.18 15.19L265.176 15.6919C265.002 15.7665 264.814 15.8049 264.624 15.8049C264.434 15.8049 264.247 15.7665 264.072 15.6919C263.729 15.5918 263.428 15.3798 263.219 15.0896C262.923 14.7543 262.67 14.3834 262.466 13.9854C262.225 13.5878 262.023 13.1675 261.864 12.7306L261.362 11.6766L260.509 9.76926L259.505 7.5106C259.204 6.75771 258.852 6.05505 258.501 5.30217L257.648 3.39484C257.196 2.391 256.794 1.58795 256.543 0.985645C256.347 0.510967 256.179 0.0248909 256.041 -0.469933C255.969 -0.766739 255.969 -1.07658 256.041 -1.37339C256.155 -1.62918 256.308 -1.86612 256.493 -2.07608C256.676 -2.2944 256.921 -2.45195 257.196 -2.52783H258.049C258.313 -2.5937 258.589 -2.5937 258.852 -2.52783C258.983 -2.47461 259.101 -2.39296 259.196 -2.2888C259.292 -2.18463 259.363 -2.06054 259.404 -1.92551C260.458 0.282944 261.512 2.4914 262.466 4.69985C263.42 6.9083 264.424 9.06655 265.427 11.275L268.891 9.61869L272.404 7.91214L272.555 8.06271ZM286.207 1.8389C286.66 1.82635 287.11 1.93001 287.512 2.14004C287.845 2.31847 288.11 2.60262 288.265 2.94785C288.419 3.29307 288.454 3.67984 288.365 4.04737C288.218 4.50348 287.939 4.90538 287.562 5.20176C287.352 5.3865 287.115 5.53878 286.859 5.65351L285.454 6.306L283.195 7.36003L279.832 8.91597C279.514 9.11317 279.178 9.28119 278.829 9.41792C278.654 9.49248 278.466 9.53089 278.277 9.53089C278.087 9.53089 277.899 9.49248 277.724 9.41792C277.549 9.37896 277.384 9.30564 277.237 9.20225C277.091 9.09886 276.966 8.96745 276.871 8.8156C276.575 8.48031 276.322 8.10936 276.118 7.71137L275.516 6.45657C275.341 6.11608 275.19 5.7639 275.064 5.40253C274.763 4.85042 274.512 4.19794 274.161 3.49525L273.408 1.28679C273.107 0.533901 272.755 -0.1688 272.404 -0.92168L271.551 -2.82897C271.099 -3.83281 270.748 -4.58571 270.497 -5.2382C270.266 -5.70437 270.081 -6.19182 269.945 -6.69374C269.841 -6.98603 269.841 -7.30491 269.945 -7.5972C270.02 -7.86024 270.158 -8.10128 270.346 -8.29993C270.542 -8.49156 270.784 -8.62976 271.049 -8.70144C271.331 -8.7533 271.62 -8.7533 271.902 -8.70144C272.165 -8.77414 272.442 -8.77414 272.705 -8.70144C272.951 -8.56789 273.146 -8.3559 273.257 -8.09915C274.311 -5.8907 275.365 -3.68225 276.319 -1.4738C277.273 0.734657 278.277 2.94313 279.28 5.10139L282.744 3.44505L286.257 1.73849L286.207 1.8389ZM302.469 -11.0103C302.569 -9.80774 302.569 -8.599 302.469 -7.39647C302.465 -6.20402 302.279 -5.01915 301.917 -3.883C301.585 -2.78329 301.039 -1.75992 300.311 -0.871477C299.551 0.0860481 298.569 0.844048 297.45 1.33699L295.492 1.98947C294.992 2.0388 294.487 2.0388 293.987 1.98947C293.177 2.16936 292.337 2.16936 291.527 1.98947C290.746 1.74108 290.003 1.38642 289.319 0.93544C288.662 0.445328 288.071 -0.128365 287.562 -0.771111C287.044 -1.37472 286.589 -2.03076 286.207 -2.7286C285.524 -3.9105 285.049 -5.20068 284.801 -6.54317C284.552 -7.88689 284.552 -9.26504 284.801 -10.6088C284.95 -11.9628 285.359 -13.2752 286.006 -14.4735C286.623 -15.6866 287.539 -16.7229 288.666 -17.4851C289.285 -17.8955 289.94 -18.2483 290.624 -18.5391C291.304 -18.7885 292.012 -18.957 292.732 -19.041H294.489L296.195 -18.7399C296.944 -18.4908 297.654 -18.1359 298.303 -17.6858C298.953 -17.2441 299.529 -16.702 300.01 -16.0797C300.595 -15.3137 301.099 -14.4895 301.515 -13.6203C301.867 -12.8172 302.168 -11.9137 302.469 -11.0103ZM297.45 -2.97954C297.883 -3.44636 298.224 -3.99145 298.454 -4.58568C298.697 -5.18174 298.865 -5.80549 298.956 -6.44281C299.032 -7.07629 299.032 -7.71661 298.956 -8.35009V-10.2574C298.733 -11.0256 298.465 -11.7798 298.153 -12.516C297.829 -13.2601 297.329 -13.9146 296.697 -14.4233C296.173 -14.8895 295.53 -15.2021 294.84 -15.3268C294.145 -15.476 293.427 -15.476 292.732 -15.3268C292.031 -15.2276 291.361 -14.9701 290.774 -14.5739C290.185 -14.1937 289.715 -13.6542 289.419 -13.018C288.992 -12.152 288.72 -11.2176 288.616 -10.2574C288.467 -9.29276 288.467 -8.31093 288.616 -7.34627C288.757 -6.53518 288.993 -5.74343 289.319 -4.98723C289.651 -4.21735 290.128 -3.51864 290.724 -2.92933C291.183 -2.50951 291.709 -2.17014 292.28 -1.92551C292.857 -1.69698 293.467 -1.56145 294.087 -1.52396C294.707 -1.51862 295.321 -1.63811 295.894 -1.87531C296.468 -2.1332 296.981 -2.5095 297.4 -2.97954H297.45ZM310.249 -7.84818C310.394 -7.40816 310.394 -6.93302 310.249 -6.49301C310.195 -6.09231 310.04 -5.71207 309.797 -5.38877C309.568 -5.06244 309.256 -4.80267 308.894 -4.63589C308.53 -4.47555 308.137 -4.39018 307.739 -4.38491C307.337 -4.34068 306.932 -4.4288 306.585 -4.63589C306.184 -4.8587 305.854 -5.18901 305.631 -5.58955C305.469 -6.00936 305.469 -6.47471 305.631 -6.89452C305.674 -7.31331 305.83 -7.71252 306.083 -8.04895C306.355 -8.35339 306.677 -8.60817 307.037 -8.80184C307.409 -8.99584 307.822 -9.09903 308.241 -9.10298C308.62 -9.20074 309.017 -9.20074 309.396 -9.10298C309.614 -8.96114 309.802 -8.7771 309.949 -8.56162C310.095 -8.34616 310.197 -8.1036 310.249 -7.84818ZM316.623 -10.7593C316.765 -10.3359 316.765 -9.8778 316.623 -9.45432C316.588 -9.04898 316.431 -8.66389 316.172 -8.35009C315.942 -8.02376 315.63 -7.76398 315.268 -7.5972C314.916 -7.39741 314.518 -7.29358 314.114 -7.29606C313.714 -7.27818 313.316 -7.36469 312.959 -7.54704C312.564 -7.76058 312.248 -8.09467 312.056 -8.50066C311.916 -8.69424 311.817 -8.91425 311.766 -9.14725C311.714 -9.38025 311.71 -9.62137 311.755 -9.85587C311.799 -10.2591 311.955 -10.6418 312.206 -10.9601C312.464 -11.2788 312.79 -11.5359 313.16 -11.713C313.538 -11.8985 313.946 -12.0174 314.365 -12.0643C314.769 -12.0668 315.167 -11.9629 315.519 -11.7632C315.764 -11.6841 315.989 -11.5537 316.18 -11.3806C316.37 -11.2074 316.521 -10.9956 316.623 -10.7593ZM320.839 -11.6126C320.717 -12.0389 320.717 -12.4912 320.839 -12.9176C320.884 -13.3054 321.041 -13.6717 321.291 -13.9716C321.53 -14.2429 321.82 -14.4646 322.144 -14.6241C322.491 -14.7054 322.852 -14.7054 323.198 -14.6241C323.555 -14.5832 323.898 -14.4632 324.202 -14.2728C324.583 -14.0565 324.883 -13.7216 325.056 -13.3191C325.201 -13.0401 325.277 -12.7302 325.277 -12.4157C325.277 -12.1011 325.201 -11.7912 325.056 -11.5122C324.843 -10.9919 324.451 -10.5647 323.951 -10.3076C323.413 -10.1313 322.833 -10.1313 322.295 -10.3076C321.975 -10.4113 321.68 -10.581 321.429 -10.8058C321.178 -11.0306 320.977 -11.3054 320.839 -11.6126ZM314.013 -27.0718C313.904 -27.5339 313.904 -28.015 314.013 -28.4771C314.149 -28.8331 314.42 -29.1214 314.766 -29.2802C314.931 -29.3566 315.111 -29.3963 315.293 -29.3963C315.475 -29.3963 315.655 -29.3566 315.82 -29.2802C316.276 -29.1838 316.695 -28.9572 317.025 -28.6277C317.527 -27.6908 317.978 -26.7873 318.38 -25.9173C318.832 -25.0641 319.233 -24.261 319.585 -23.4579C319.978 -22.6908 320.329 -21.9034 320.639 -21.0989L321.693 -18.6897C321.816 -18.4489 321.88 -18.1822 321.88 -17.9117C321.88 -17.6411 321.816 -17.3745 321.693 -17.1337C321.612 -16.9151 321.485 -16.7166 321.321 -16.552C321.156 -16.3873 320.958 -16.2604 320.739 -16.1801C320.304 -16.0043 319.819 -16.0043 319.384 -16.1801C319.13 -16.2415 318.897 -16.3656 318.704 -16.541C318.511 -16.7164 318.365 -16.9375 318.28 -17.1839L313.813 -26.8208L314.013 -27.0718ZM328.619 -15.0759C328.497 -15.5022 328.497 -15.9545 328.619 -16.3808C328.664 -16.7686 328.821 -17.1349 329.071 -17.4349C329.307 -17.7092 329.598 -17.9314 329.924 -18.0874C330.27 -18.1789 330.633 -18.1789 330.978 -18.0874C331.378 -18.0638 331.764 -17.9292 332.092 -17.6987C332.42 -17.4682 332.678 -17.1509 332.835 -16.7824C332.981 -16.5033 333.056 -16.1934 333.056 -15.8789C333.056 -15.5644 332.981 -15.2545 332.835 -14.9754C332.644 -14.5711 332.343 -14.2294 331.965 -13.9901C331.587 -13.7508 331.149 -13.6237 330.702 -13.6237C330.255 -13.6237 329.817 -13.7508 329.439 -13.9901C329.062 -14.2294 328.76 -14.5711 328.569 -14.9754L328.619 -15.0759ZM321.843 -30.5852C321.714 -31.0276 321.714 -31.498 321.843 -31.9404C321.999 -32.2839 322.263 -32.5663 322.596 -32.7435C322.77 -32.821 322.958 -32.861 323.148 -32.861C323.339 -32.861 323.527 -32.821 323.7 -32.7435C324.157 -32.6471 324.575 -32.4205 324.905 -32.091C325.373 -31.1206 325.825 -30.2171 326.26 -29.3806C326.662 -28.5775 327.063 -27.7243 327.415 -26.9212C327.766 -26.1181 328.168 -25.3652 328.519 -24.5622L329.523 -22.1529C329.635 -21.909 329.694 -21.6436 329.694 -21.375C329.694 -21.1063 329.635 -20.8409 329.523 -20.597C329.308 -20.1727 328.954 -19.8357 328.519 -19.6433C328.084 -19.4675 327.598 -19.4675 327.164 -19.6433C326.912 -19.7246 326.682 -19.8616 326.491 -20.0441C326.3 -20.2266 326.152 -20.4499 326.059 -20.6973L321.643 -30.2841L321.843 -30.5852Z" fill="white"/>
</g>
<g opacity="0.4">
<path fill-rule="evenodd" clip-rule="evenodd" d="M-93.1824 61.2744C-95.1137 56.3314 -95.9435 51.0267 -95.6141 45.7301C-95.2847 40.4336 -93.8039 35.2725 -91.2751 30.607C-83.6961 14.3447 -66.932 -1.76691 -44.6467 -12.3574C-22.3613 -22.948 0.526287 -25.4576 17.4912 -20.7897C22.5962 -19.6808 27.3897 -17.4474 31.5227 -14.2522C35.6556 -11.057 39.024 -6.98031 41.3826 -2.31902C47.4559 11.283 42.4869 29.051 28.1319 45.3133C28.0085 45.4513 27.9402 45.63 27.9402 45.8152C27.9402 46.0004 28.0085 46.1791 28.1319 46.3171L48.2088 69.5059L10.2133 61.4752C10.1346 61.4391 10.049 61.4204 9.9624 61.4204C9.87578 61.4204 9.79016 61.4391 9.71143 61.4752C4.3629 65.1578 -1.27735 68.3975 -7.15313 71.1622C-29.4886 81.7528 -52.326 84.3126 -69.291 79.6447C-74.3866 78.5467 -79.1741 76.3287 -83.3064 73.1513C-87.4387 69.974 -90.8122 65.9169 -93.1824 61.2744Z" fill="#1A96F0"/>
<path d="M-101.188 31.2555L-101.176 31.2339L-101.165 31.2117C-92.4932 12.6283 -73.2565 -5.8707 -47.5972 -18.0485C-21.9415 -30.2245 4.34109 -33.0745 23.7423 -27.7434L23.7636 -27.7376L23.7851 -27.7329C29.5749 -26.4769 35.0112 -23.9473 39.6984 -20.3284C44.3804 -16.7135 48.1971 -12.1026 50.8716 -6.83073C57.7 8.46779 52.1692 28.6532 35.6659 47.3259C35.3909 47.6334 35.2388 48.0315 35.2388 48.4441C35.2388 48.8546 35.3894 49.2509 35.6619 49.5579C35.6636 49.5597 35.6652 49.5616 35.6669 49.5634L57.3141 74.533L15.7731 65.7645C15.6044 65.7013 15.4255 65.6688 15.2448 65.6688C15.0287 65.6688 14.8148 65.7153 14.618 65.8054L14.5542 65.8346L14.4965 65.8743C8.34389 70.1049 1.85569 73.8268 -4.90343 77.0029L-4.9056 77.004C-30.6215 89.1812 -56.8459 92.088 -76.2457 86.7572L-76.2676 86.7512L-76.2898 86.7464C-82.069 85.5028 -87.4986 82.9906 -92.185 79.3919C-96.8607 75.8015 -100.68 71.2193 -103.367 65.9763C-105.548 60.3846 -106.485 54.3858 -106.112 48.3961C-105.738 42.3929 -104.058 36.5435 -101.188 31.2555Z" stroke="#1A96F0" stroke-width="1.6165"/>
<path d="M-64.7729 39.19C-64.3479 39.0585 -63.893 39.0585 -63.468 39.19C-63.0984 39.4058 -62.8147 39.7427 -62.6649 40.1436C-62.5347 40.5346 -62.5347 40.9573 -62.6649 41.3482C-62.7044 41.5624 -62.7871 41.7663 -62.9079 41.9475C-63.0287 42.1287 -63.1851 42.2834 -63.3676 42.4023L-61.1089 47.4215C-60.9829 47.8815 -60.9829 48.3669 -61.1089 48.8269C-61.1367 49.2584 -61.3142 49.6667 -61.6108 49.9813C-61.8631 50.2863 -62.222 50.4837 -62.6147 50.5334C-63.052 50.6948 -63.5326 50.6948 -63.9699 50.5334C-64.19 50.3894 -64.378 50.2014 -64.522 49.9813C-64.6575 49.7918 -64.7751 49.5902 -64.8733 49.379L-67.0818 44.3598L-73.6068 47.3211L-71.3983 52.0894C-71.3699 52.3059 -71.3699 52.5253 -71.3983 52.7419C-71.3506 52.9568 -71.3506 53.1795 -71.3983 53.3944C-71.3986 53.6303 -71.4478 53.8637 -71.5428 54.0797C-71.6378 54.2956 -71.7766 54.4895 -71.9504 54.6492C-72.0838 54.7988 -72.2458 54.9203 -72.4268 55.0064C-72.6078 55.0926 -72.8042 55.1418 -73.0044 55.1511C-73.4408 55.1532 -73.8713 55.0499 -74.2592 54.8499C-74.6881 54.5946 -75.0227 54.2072 -75.2129 53.7457L-81.8383 39.3406C-81.9363 39.1105 -81.9868 38.8629 -81.9868 38.6128C-81.9868 38.3627 -81.9363 38.1151 -81.8383 37.885C-81.733 37.4468 -81.507 37.0468 -81.1858 36.7306C-81.0354 36.5679 -80.853 36.4381 -80.65 36.3493C-80.447 36.2605 -80.2278 36.2146 -80.0063 36.2146C-79.7847 36.2146 -79.5655 36.2605 -79.3625 36.3493C-79.1596 36.4381 -78.9771 36.5679 -78.8267 36.7306L-78.5256 37.0819V37.4835L-75.6144 43.8077L-69.1397 40.7961L-71.9002 34.8233C-72.0002 34.445 -72.0002 34.0472 -71.9002 33.6689C-71.9102 33.2091 -71.7492 32.762 -71.4485 32.4141C-71.1771 32.0881 -70.8072 31.8591 -70.3945 31.7616C-70.0024 31.6383 -69.5819 31.6383 -69.1899 31.7616C-68.7545 31.9607 -68.4128 32.3204 -68.2362 32.7654L-64.7729 39.19ZM-43.1401 39.7923C-43.0135 40.1839 -43.0135 40.6053 -43.1401 40.9969C-43.2149 41.3555 -43.3888 41.6859 -43.6421 41.9506C-43.8583 42.2047 -44.1636 42.3664 -44.4953 42.4023C-44.8835 42.5487 -45.3118 42.5487 -45.7 42.4023C-46.0765 42.2338 -46.3919 41.9534 -46.6034 41.5992C-46.7742 41.2475 -46.9757 40.9116 -47.2057 40.5954C-47.9084 39.6417 -48.6111 38.7383 -49.4644 37.7846L-52.8774 39.3908L-56.2905 40.9969V42.7035C-56.2905 43.3058 -56.2905 43.7575 -55.9391 44.3096C-55.9628 44.7275 -55.9628 45.1465 -55.9391 45.5644C-55.8137 45.9903 -55.8137 46.4435 -55.9391 46.8694C-56.0566 47.3127 -56.3223 47.7023 -56.692 47.9736C-57.0319 48.1006 -57.4062 48.1006 -57.7461 47.9736C-58.1162 47.9195 -58.4639 47.7631 -58.7499 47.5219C-59.1196 47.2506 -59.3853 46.8609 -59.5028 46.4177C-59.7063 45.8127 -59.8574 45.1914 -59.9545 44.5605L-60.2557 42.7035C-60.8635 39.137 -61.1991 35.5295 -61.2595 31.9121C-61.31 31.6131 -61.31 31.3077 -61.2595 31.0087V29.1014C-61.3113 28.7688 -61.3113 28.4301 -61.2595 28.0975C-61.213 27.7651 -61.1112 27.4428 -60.9584 27.1439C-60.7622 26.8507 -60.4824 26.6233 -60.1553 26.4914C-59.7206 26.3156 -59.2347 26.3156 -58.8001 26.4914C-56.9844 27.1697 -55.2897 28.1357 -53.7809 29.3523C-52.224 30.5422 -50.7328 31.8156 -49.3138 33.1669L-48.2096 32.665C-47.8047 32.5151 -47.3596 32.5151 -46.9548 32.665C-46.6123 32.7937 -46.3154 33.0207 -46.1015 33.3175C-45.942 33.5956 -45.8396 33.9028 -45.8003 34.221C-45.7275 34.5347 -45.7275 34.8609 -45.8003 35.1746C-45.9571 35.4864 -46.1797 35.7604 -46.4528 35.9777L-45.0474 37.7344C-44.5957 38.3368 -44.1942 38.9892 -43.7926 39.6417L-43.1401 39.7923ZM-52.3253 34.7731C-53.0308 34.0679 -53.7856 33.4137 -54.5839 32.8156C-55.3413 32.1698 -56.1467 31.5825 -56.9932 31.0589V36.8811L-54.7345 35.7769L-52.3253 34.7731ZM-31.4454 32.0627C-30.974 32.0835 -30.5123 32.2032 -30.0902 32.4141C-29.7658 32.6019 -29.5039 32.8813 -29.3373 33.2171C-29.211 33.5744 -29.211 33.9641 -29.3373 34.3214C-29.478 34.7678 -29.7384 35.167 -30.0902 35.4758C-30.312 35.6703 -30.5671 35.8233 -30.8431 35.9275L-32.1983 36.58L-34.4569 37.634L-37.8198 39.19L-38.8236 39.6919C-38.9981 39.7665 -39.186 39.8049 -39.3757 39.8049C-39.5655 39.8049 -39.7533 39.7665 -39.9278 39.6919C-40.2714 39.5918 -40.5717 39.3798 -40.7811 39.0896C-41.0771 38.7543 -41.33 38.3834 -41.534 37.9854C-41.7752 37.5878 -41.977 37.1675 -42.1363 36.7306L-42.6382 35.6766L-43.4915 33.7693L-44.4953 31.5106C-44.7965 30.7577 -45.1478 30.055 -45.4992 29.3022L-46.3524 27.3948C-46.8042 26.391 -47.2057 25.5879 -47.4567 24.9856C-47.653 24.511 -47.8206 24.0249 -47.9586 23.5301C-48.0309 23.2333 -48.0309 22.9234 -47.9586 22.6266C-47.8445 22.3708 -47.6922 22.1339 -47.5069 21.9239C-47.3238 21.7056 -47.0788 21.548 -46.8042 21.4722H-45.9509C-45.6872 21.4063 -45.4115 21.4063 -45.1478 21.4722C-45.0169 21.5254 -44.8995 21.607 -44.804 21.7112C-44.7085 21.8154 -44.6374 21.9395 -44.5957 22.0745C-43.5417 24.2829 -42.4876 26.4914 -41.534 28.6998C-40.5803 30.9083 -39.5765 33.0666 -38.5726 35.275L-35.1094 33.6187L-31.5959 31.9121L-31.4454 32.0627ZM-17.7931 25.8389C-17.3396 25.8263 -16.8903 25.93 -16.4881 26.14C-16.1547 26.3185 -15.8899 26.6026 -15.7355 26.9478C-15.581 27.2931 -15.5456 27.6798 -15.6348 28.0474C-15.7818 28.5035 -16.0614 28.9054 -16.4379 29.2018C-16.6484 29.3865 -16.8852 29.5388 -17.1406 29.6535L-18.546 30.306L-20.8047 31.36L-24.1675 32.916C-24.4863 33.1132 -24.8223 33.2812 -25.1714 33.4179C-25.3459 33.4925 -25.5337 33.5309 -25.7235 33.5309C-25.9133 33.5309 -26.1011 33.4925 -26.2756 33.4179C-26.4506 33.379 -26.6161 33.3056 -26.7626 33.2023C-26.909 33.0989 -27.0335 32.9674 -27.1288 32.8156C-27.4248 32.4803 -27.6777 32.1094 -27.8817 31.7114L-28.4841 30.4566C-28.6588 30.1161 -28.8097 29.7639 -28.9358 29.4025C-29.2369 28.8504 -29.4879 28.1979 -29.8392 27.4953L-30.5921 25.2868C-30.8933 24.5339 -31.2446 23.8312 -31.5959 23.0783L-32.4492 21.171C-32.901 20.1672 -33.2523 19.4143 -33.5033 18.7618C-33.734 18.2956 -33.9189 17.8082 -34.0554 17.3063C-34.1587 17.014 -34.1587 16.6951 -34.0554 16.4028C-33.9798 16.1398 -33.8421 15.8987 -33.6538 15.7001C-33.4577 15.5084 -33.2158 15.3702 -32.9511 15.2986C-32.6691 15.2467 -32.38 15.2467 -32.0979 15.2986C-31.8351 15.2259 -31.5576 15.2259 -31.2948 15.2986C-31.0487 15.4321 -30.8544 15.6441 -30.7427 15.9008C-29.6886 18.1093 -28.6346 20.3178 -27.681 22.5262C-26.7273 24.7347 -25.7235 26.9431 -24.7196 29.1014L-21.2564 27.445L-17.7429 25.7385L-17.7931 25.8389ZM-1.53087 12.9897C-1.43078 14.1923 -1.43078 15.401 -1.53087 16.6035C-1.53471 17.796 -1.72091 18.9809 -2.08299 20.117C-2.4151 21.2167 -2.9609 22.2401 -3.68914 23.1285C-4.44933 24.086 -5.43127 24.844 -6.55009 25.337L-8.50758 25.9895C-9.00829 26.0388 -9.51265 26.0388 -10.0134 25.9895C-10.8233 26.1694 -11.6628 26.1694 -12.4728 25.9895C-13.2538 25.7411 -13.9969 25.3864 -14.6812 24.9354C-15.3384 24.4453 -15.929 23.8716 -16.4379 23.2289C-16.9565 22.6253 -17.4107 21.9692 -17.7931 21.2714C-18.4761 20.0895 -18.9515 18.7993 -19.1985 17.4568C-19.4478 16.1131 -19.4478 14.735 -19.1985 13.3912C-19.0505 12.0372 -18.6414 10.7248 -17.9939 9.52646C-17.3767 8.31342 -16.4613 7.27715 -15.3337 6.51495C-14.7148 6.1045 -14.0596 5.75168 -13.3762 5.46092C-12.6957 5.21146 -11.9881 5.04296 -11.2682 4.95896H-9.51144L-7.80489 5.26014C-7.05555 5.50919 -6.34568 5.86412 -5.69683 6.31417C-5.04659 6.75589 -4.47055 7.29801 -3.99028 7.92032C-3.40535 8.68632 -2.9008 9.51045 -2.48454 10.3797C-2.13319 11.1828 -1.83203 12.0863 -1.53087 12.9897ZM-6.55009 21.0205C-6.11657 20.5536 -5.77591 20.0086 -5.54626 19.4143C-5.30326 18.8183 -5.13469 18.1945 -5.04435 17.5572C-4.96811 16.9237 -4.96811 16.2834 -5.04435 15.6499V13.7426C-5.26681 12.9744 -5.53496 12.2202 -5.8474 11.484C-6.17127 10.7399 -6.67073 10.0854 -7.30297 9.57667C-7.82717 9.11048 -8.46977 8.79787 -9.1601 8.67321C-9.85486 8.52398 -10.5734 8.52398 -11.2682 8.67321C-11.9693 8.77244 -12.6387 9.02987 -13.2257 9.42606C-13.8153 9.80631 -14.2851 10.3458 -14.5808 10.982C-15.0084 11.848 -15.2802 12.7824 -15.3839 13.7426C-15.5329 14.7072 -15.5329 15.6891 -15.3839 16.6537C-15.2426 17.4648 -15.0068 18.2566 -14.6812 19.0128C-14.3493 19.7826 -13.8722 20.4814 -13.2759 21.0707C-12.8174 21.4905 -12.2913 21.8299 -11.7199 22.0745C-11.1426 22.303 -10.5327 22.4386 -9.91295 22.476C-9.29317 22.4814 -8.67865 22.3619 -8.10603 22.1247C-7.53193 21.8668 -7.01882 21.4905 -6.60029 21.0205H-6.55009ZM6.24888 16.1518C6.39438 16.5918 6.39438 17.067 6.24888 17.507C6.1954 17.9077 6.03987 18.2879 5.79717 18.6112C5.56778 18.9376 5.25606 19.1973 4.89371 19.3641C4.52967 19.5245 4.13703 19.6098 3.73927 19.6151C3.33741 19.6593 2.93211 19.5712 2.58487 19.3641C2.18434 19.1413 1.85402 18.811 1.63121 18.4105C1.46865 17.9906 1.46865 17.5253 1.63121 17.1055C1.67374 16.6867 1.82997 16.2875 2.08297 15.951C2.35471 15.6466 2.67739 15.3918 3.03659 15.1982C3.40875 15.0042 3.82155 14.901 4.24122 14.897C4.61982 14.7993 5.01702 14.7993 5.39562 14.897C5.6142 15.0389 5.80229 15.2229 5.94881 15.4384C6.09533 15.6538 6.19733 15.8964 6.24888 16.1518ZM12.6233 13.2407C12.7649 13.6641 12.7649 14.1222 12.6233 14.5457C12.5881 14.951 12.4305 15.3361 12.1716 15.6499C11.9422 15.9762 11.6304 16.236 11.2681 16.4028C10.9163 16.6026 10.5182 16.7064 10.1137 16.7039C9.71363 16.7218 9.31578 16.6353 8.95926 16.453C8.56422 16.2394 8.24769 15.9053 8.0558 15.4993C7.91617 15.3058 7.81746 15.0858 7.76568 14.8528C7.71391 14.6198 7.71016 14.3786 7.75466 14.1441C7.79849 13.7409 7.95507 13.3582 8.20641 13.0399C8.46443 12.7212 8.79018 12.4641 9.16003 12.287C9.53838 12.1015 9.94592 11.9826 10.3647 11.9357C10.7692 11.9332 11.1673 12.0371 11.5191 12.2368C11.764 12.3159 11.9892 12.4463 12.1797 12.6194C12.3701 12.7926 12.5214 13.0044 12.6233 13.2407ZM16.8394 12.3874C16.7167 11.9611 16.7167 11.5088 16.8394 11.0824C16.8843 10.6946 17.0413 10.3283 17.2912 10.0284C17.5301 9.75711 17.82 9.53543 18.1444 9.37589C18.4911 9.29462 18.8518 9.29462 19.1985 9.37589C19.5551 9.41677 19.8981 9.5368 20.2023 9.72724C20.5831 9.94354 20.8828 10.2784 21.0556 10.6809C21.2007 10.9599 21.2765 11.2698 21.2765 11.5843C21.2765 11.8989 21.2007 12.2088 21.0556 12.4878C20.8428 13.0081 20.4512 13.4353 19.9513 13.6924C19.4133 13.8687 18.833 13.8687 18.295 13.6924C17.9747 13.5887 17.6796 13.419 17.4289 13.1942C17.1782 12.9694 16.9774 12.6946 16.8394 12.3874ZM10.0133 -3.07177C9.90432 -3.53389 9.90432 -4.01502 10.0133 -4.47714C10.1494 -4.83307 10.4198 -5.12138 10.7662 -5.28019C10.9314 -5.35664 11.1112 -5.39626 11.2932 -5.39626C11.4752 -5.39626 11.655 -5.35664 11.8202 -5.28019C12.2764 -5.18385 12.6949 -4.9572 13.0248 -4.62771C13.5268 -3.69079 13.9785 -2.78733 14.38 -1.91733C14.8317 -1.06407 15.2333 -0.261003 15.5846 0.542071C15.9776 1.30916 16.3294 2.09662 16.6387 2.90111L17.6927 5.31031C17.816 5.55109 17.8804 5.81778 17.8804 6.08832C17.8804 6.35885 17.816 6.6255 17.6927 6.86629C17.6124 7.08488 17.4855 7.28337 17.3208 7.44804C17.1561 7.61271 16.9576 7.73959 16.739 7.81991C16.3044 7.99573 15.8185 7.99573 15.3839 7.81991C15.1305 7.75852 14.8965 7.63444 14.7036 7.45903C14.5106 7.28363 14.3648 7.06254 14.2796 6.81609L9.81255 -2.82079L10.0133 -3.07177ZM24.6192 8.92414C24.4965 8.4978 24.4965 8.04552 24.6192 7.61918C24.6641 7.23139 24.8211 6.86506 25.0709 6.56511C25.307 6.2908 25.5976 6.06861 25.9242 5.91263C26.2696 5.82112 26.6329 5.82112 26.9782 5.91263C27.3785 5.9362 27.7642 6.07077 28.0922 6.30127C28.4202 6.53176 28.6775 6.84909 28.8353 7.21763C28.9805 7.49666 29.0563 7.80656 29.0563 8.12109C29.0563 8.43562 28.9805 8.74552 28.8353 9.02455C28.6444 9.42886 28.3425 9.77056 27.9648 10.0099C27.5872 10.2492 27.1493 10.3763 26.7022 10.3763C26.255 10.3763 25.8171 10.2492 25.4395 10.0099C25.0618 9.77056 24.7599 9.42886 24.569 9.02455L24.6192 8.92414ZM17.8433 -6.5852C17.7136 -7.02762 17.7136 -7.49798 17.8433 -7.94041C17.9986 -8.28391 18.2634 -8.56628 18.5962 -8.74346C18.7699 -8.82097 18.958 -8.86102 19.1483 -8.86102C19.3385 -8.86102 19.5266 -8.82097 19.7004 -8.74346C20.1566 -8.64712 20.5751 -8.42046 20.905 -8.09098C21.3735 -7.1206 21.8252 -6.21713 22.2602 -5.3806C22.6617 -4.57753 23.0633 -3.72427 23.4146 -2.9212C23.766 -2.11812 24.1675 -1.36523 24.5188 -0.562161L25.5226 1.84708C25.6352 2.091 25.6935 2.35642 25.6935 2.62505C25.6935 2.89368 25.6352 3.1591 25.5226 3.40302C25.3082 3.82731 24.9536 4.16429 24.5188 4.35668C24.0842 4.5325 23.5983 4.5325 23.1636 4.35668C22.9121 4.27538 22.6822 4.13836 22.491 3.95586C22.2999 3.77337 22.1523 3.55009 22.0594 3.30265L17.6425 -6.28406L17.8433 -6.5852Z" fill="white"/>
</g>
</svg>
