<svg width="488" height="347" viewBox="0 0 488 347" fill="none" xmlns="http://www.w3.org/2000/svg">
<rect width="488" height="263" fill="#FCE9D2"/>
<rect width="488" height="347" fill="#FCE9D2"/>
<g opacity="0.4">
<path d="M490.681 143.429L486.375 136.361C485.639 135.152 485.316 133.053 485.643 131.707L487.605 123.625C488.404 120.333 486.365 116.985 483.072 116.186L475.028 114.233C473.681 113.906 471.964 112.657 471.228 111.448L466.921 104.381C465.165 101.498 461.349 100.572 458.466 102.328L451.324 106.616C450.152 107.362 448.053 107.684 446.669 107.348L438.625 105.395C435.333 104.596 431.985 106.636 431.186 109.928L429.233 117.972C428.906 119.319 427.657 121.036 426.448 121.773L419.381 126.079C416.498 127.835 415.572 131.651 417.328 134.534L421.634 141.602C422.371 142.811 422.693 144.909 422.366 146.256L420.413 154.3C419.614 157.592 421.654 160.94 424.946 161.739L432.99 163.692C434.337 164.019 436.054 165.268 436.791 166.477L441.097 173.545C442.853 176.427 446.67 177.354 449.552 175.597L456.62 171.291C457.829 170.555 459.927 170.232 461.274 170.559L469.318 172.512C472.611 173.311 475.958 171.272 476.758 167.979L478.71 159.935C479.037 158.588 480.286 156.871 481.495 156.135L488.563 151.828C491.549 150.137 492.475 146.32 490.681 143.429ZM441.76 124.143C442.259 122.085 444.352 120.81 446.409 121.31C448.467 121.809 449.742 123.902 449.242 125.96C448.743 128.017 446.688 129.301 444.593 128.793C442.535 128.293 441.26 126.201 441.76 124.143ZM441.553 149.963C440.855 150.388 440.081 150.478 439.37 150.305C438.659 150.133 438.012 149.698 437.587 149.001C436.765 147.652 437.201 145.856 438.55 145.035L466.447 128.037C467.796 127.215 469.592 127.651 470.413 129C471.235 130.348 470.799 132.144 469.45 132.965L441.553 149.963ZM461.591 156.69C459.496 156.182 458.221 154.089 458.72 152.032C459.22 149.974 461.312 148.699 463.37 149.199C465.428 149.698 466.703 151.79 466.203 153.848C465.703 155.906 463.649 157.19 461.591 156.69Z" fill="#FF981F"/>
<path d="M400.019 143.461L392.842 131.682C389.915 126.878 391.459 120.517 396.264 117.59L408.043 110.413C410.057 109.185 412.139 106.323 412.684 104.078L415.939 90.6716C417.271 85.1844 422.85 81.7849 428.338 83.1171L441.744 86.3719C443.989 86.9169 447.487 86.3797 449.502 85.152L461.281 77.9749C466.085 75.0475 472.446 76.5916 475.373 81.3963L482.55 93.1755C483.778 95.1903 486.64 97.2716 488.885 97.8166L502.291 101.071C507.779 102.404 511.178 107.983 509.846 113.47L506.591 126.877C506.046 129.122 506.583 132.62 507.811 134.634L514.988 146.414C517.916 151.218 516.371 157.579 511.567 160.506L499.788 167.683C497.773 168.911 495.691 171.773 495.146 174.018L491.892 187.424C490.559 192.911 484.98 196.311 479.493 194.979L466.086 191.724C463.841 191.179 460.343 191.716 458.329 192.944L446.549 200.121C441.745 203.048 435.384 201.504 432.457 196.7L425.28 184.921C424.052 182.906 421.19 180.824 418.945 180.279L405.539 177.025C400.052 175.692 396.652 170.112 397.984 164.625L401.239 151.219C401.799 148.912 401.262 145.414 400.019 143.461Z" stroke="#FF981F" stroke-width="2" stroke-linecap="round" stroke-linejoin="round"/>
</g>
<g opacity="0.4">
<path d="M234.681 183.429L230.375 176.361C229.638 175.152 229.316 173.053 229.643 171.707L231.605 163.625C232.404 160.333 230.365 156.985 227.072 156.186L219.028 154.233C217.681 153.906 215.964 152.657 215.228 151.448L210.921 144.381C209.165 141.498 205.349 140.571 202.466 142.328L195.324 146.616C194.152 147.362 192.053 147.684 190.669 147.348L182.625 145.395C179.333 144.596 175.985 146.636 175.186 149.928L173.233 157.972C172.906 159.319 171.657 161.036 170.448 161.773L163.381 166.079C160.498 167.835 159.572 171.651 161.328 174.534L165.634 181.602C166.371 182.81 166.693 184.909 166.366 186.256L164.413 194.3C163.614 197.592 165.654 200.94 168.946 201.739L176.99 203.692C178.337 204.019 180.054 205.268 180.791 206.477L185.097 213.545C186.853 216.427 190.67 217.354 193.552 215.597L200.62 211.291C201.829 210.555 203.927 210.232 205.274 210.559L213.318 212.512C216.611 213.311 219.958 211.271 220.758 207.979L222.71 199.935C223.037 198.588 224.286 196.871 225.495 196.135L232.563 191.828C235.549 190.137 236.475 186.32 234.681 183.429ZM185.76 164.143C186.259 162.085 188.352 160.81 190.409 161.31C192.467 161.809 193.742 163.902 193.242 165.959C192.743 168.017 190.688 169.301 188.593 168.792C186.535 168.293 185.26 166.201 185.76 164.143ZM185.553 189.963C184.855 190.388 184.081 190.478 183.37 190.305C182.659 190.132 182.012 189.698 181.587 189.001C180.765 187.652 181.201 185.856 182.55 185.035L210.447 168.037C211.796 167.215 213.592 167.651 214.413 169C215.235 170.348 214.799 172.144 213.45 172.965L185.553 189.963ZM205.591 196.69C203.496 196.182 202.221 194.089 202.72 192.032C203.22 189.974 205.312 188.699 207.37 189.199C209.428 189.698 210.703 191.79 210.203 193.848C209.703 195.906 207.649 197.19 205.591 196.69Z" fill="#FF981F"/>
<path d="M144.019 183.461L136.842 171.682C133.915 166.878 135.459 160.517 140.264 157.59L152.043 150.413C154.057 149.185 156.139 146.323 156.684 144.078L159.939 130.672C161.271 125.184 166.85 121.785 172.338 123.117L185.744 126.372C187.989 126.917 191.487 126.38 193.502 125.152L205.281 117.975C210.085 115.047 216.446 116.592 219.373 121.396L226.55 133.175C227.778 135.19 230.64 137.272 232.885 137.817L246.291 141.071C251.779 142.404 255.178 147.983 253.846 153.47L250.591 166.877C250.046 169.122 250.583 172.62 251.811 174.634L258.988 186.414C261.916 191.218 260.371 197.579 255.567 200.506L243.788 207.683C241.773 208.911 239.691 211.773 239.146 214.018L235.892 227.423C234.559 232.911 228.98 236.311 223.493 234.979L210.086 231.724C207.841 231.179 204.343 231.716 202.329 232.944L190.549 240.121C185.745 243.048 179.384 241.504 176.457 236.7L169.28 224.92C168.052 222.906 165.19 220.824 162.945 220.279L149.539 217.025C144.052 215.692 140.652 210.112 141.984 204.625L145.239 191.219C145.799 188.912 145.262 185.414 144.019 183.461Z" stroke="#FF981F" stroke-width="2" stroke-linecap="round" stroke-linejoin="round"/>
</g>
<g opacity="0.4">
<path d="M290.681 15.4285L286.375 8.3611C285.638 7.1522 285.316 5.05338 285.643 3.70651L287.605 -4.37475C288.404 -7.66711 286.365 -11.0148 283.072 -11.8142L275.028 -13.767C273.681 -14.094 271.964 -15.3429 271.228 -16.5518L266.921 -23.6193C265.165 -26.502 261.349 -27.4285 258.466 -25.6721L251.324 -21.384C250.152 -20.6384 248.053 -20.3159 246.669 -20.652L238.625 -22.6049C235.333 -23.4042 231.985 -21.3644 231.186 -18.0721L229.233 -10.0282C228.906 -8.68136 227.657 -6.96403 226.448 -6.22745L219.381 -1.92127C216.498 -0.16481 215.572 3.65134 217.328 6.53411L221.634 13.6015C222.371 14.8105 222.693 16.9093 222.366 18.2561L220.413 26.3C219.614 29.5923 221.654 32.9401 224.946 33.7394L232.99 35.6923C234.337 36.0193 236.054 37.2682 236.791 38.4771L241.097 45.5445C242.853 48.4273 246.67 49.3538 249.552 47.5973L256.62 43.2911C257.829 42.5545 259.927 42.2321 261.274 42.5591L269.318 44.512C272.611 45.3113 275.958 43.2715 276.758 39.9791L278.71 31.9353C279.037 30.5884 280.286 28.8711 281.495 28.1345L288.563 23.8283C291.549 22.1365 292.475 18.3204 290.681 15.4285ZM241.76 -3.85717C242.259 -5.9149 244.352 -7.18975 246.409 -6.69018C248.467 -6.19061 249.742 -4.09828 249.242 -2.04055C248.743 0.0171756 246.688 1.30111 244.593 0.792459C242.535 0.292888 241.26 -1.79945 241.76 -3.85717ZM241.553 21.9634C240.855 22.3883 240.081 22.4776 239.37 22.305C238.659 22.1325 238.012 21.698 237.587 21.0006C236.765 19.6522 237.201 17.8563 238.55 17.0348L266.447 0.0367C267.796 -0.784872 269.592 -0.348883 270.413 0.999508C271.235 2.3479 270.799 4.14373 269.45 4.96531L241.553 21.9634ZM261.591 28.6902C259.496 28.1816 258.221 26.0893 258.72 24.0315C259.22 21.9738 261.312 20.6989 263.37 21.1985C265.428 21.6981 266.703 23.7904 266.203 25.8481C265.703 27.9059 263.649 29.1898 261.591 28.6902Z" fill="#FF981F"/>
<path d="M200.019 15.4615L192.842 3.68232C189.915 -1.12229 191.459 -7.4826 196.264 -10.41L208.043 -17.5871C210.057 -18.8148 212.139 -21.677 212.684 -23.9218L215.939 -37.3284C217.271 -42.8156 222.85 -46.2151 228.338 -44.8829L241.744 -41.6281C243.989 -41.0831 247.487 -41.6203 249.502 -42.848L261.281 -50.0251C266.085 -52.9525 272.446 -51.4084 275.373 -46.6037L282.55 -34.8245C283.778 -32.8097 286.64 -30.7284 288.885 -30.1834L302.291 -26.9286C307.779 -25.5964 311.178 -20.017 309.846 -14.5298L306.591 -1.12322C306.046 1.12158 306.583 4.61964 307.811 6.63448L314.988 18.4137C317.916 23.2183 316.371 29.5786 311.567 32.5061L299.788 39.6831C297.773 40.9107 295.691 43.773 295.146 46.0178L291.892 59.4236C290.559 64.9108 284.98 68.3111 279.493 66.9789L266.086 63.7241C263.841 63.1791 260.343 63.7163 258.329 64.944L246.549 72.121C241.745 75.0485 235.384 73.5043 232.457 68.6997L225.28 56.9205C224.052 54.9057 221.19 52.8244 218.945 52.2794L205.539 49.0246C200.052 47.6924 196.652 42.1122 197.984 36.625L201.239 23.2192C201.799 20.912 201.262 17.414 200.019 15.4615Z" stroke="#FF981F" stroke-width="2" stroke-linecap="round" stroke-linejoin="round"/>
</g>
<g opacity="0.4">
<path d="M34.6812 55.4285L30.3751 48.3611C29.6385 47.1522 29.316 45.0534 29.643 43.7065L31.605 35.6253C32.4043 32.3329 30.3645 28.9852 27.0722 28.1858L19.0283 26.233C17.6815 25.906 15.9641 24.6571 15.2275 23.4482L10.9214 16.3807C9.16491 13.498 5.34876 12.5715 2.46599 14.3279L-4.67627 18.616C-5.84777 19.3616 -7.94658 19.6841 -9.33087 19.348L-17.3747 17.3951C-20.6671 16.5958 -24.0148 18.6356 -24.8141 21.9279L-26.767 29.9718C-27.094 31.3186 -28.3429 33.036 -29.5518 33.7726L-36.6192 38.0787C-39.502 39.8352 -40.4285 43.6513 -38.672 46.5341L-34.3658 53.6015C-33.6293 54.8105 -33.3068 56.9093 -33.6338 58.2561L-35.5867 66.3C-36.386 69.5923 -34.3462 72.9401 -31.0539 73.7394L-23.01 75.6923C-21.6632 76.0193 -19.9458 77.2682 -19.2092 78.4771L-14.9031 85.5445C-13.1466 88.4273 -9.33046 89.3538 -6.44769 87.5973L0.619752 83.2911C1.82866 82.5545 3.92748 82.2321 5.27435 82.5591L13.3182 84.512C16.6105 85.3113 19.9583 83.2715 20.7576 79.9791L22.7105 71.9353C23.0375 70.5884 24.2864 68.8711 25.4953 68.1345L32.5627 63.8283C35.5486 62.1365 36.4751 58.3204 34.6812 55.4285ZM-14.2403 36.1428C-13.7407 34.0851 -11.6484 32.8102 -9.59065 33.3098C-7.53292 33.8094 -6.25807 35.9017 -6.75764 37.9594C-7.25721 40.0172 -9.31213 41.3011 -11.4073 40.7925C-13.465 40.2929 -14.7398 38.2006 -14.2403 36.1428ZM-14.4473 61.9634C-15.1448 62.3883 -15.9192 62.4776 -16.6301 62.305C-17.3409 62.1325 -17.9882 61.698 -18.4131 61.0006C-19.2347 59.6522 -18.7987 57.8563 -17.4503 57.0348L10.4475 40.0367C11.7959 39.2151 13.5917 39.6511 14.4133 40.9995C15.2348 42.3479 14.7988 44.1437 13.4505 44.9653L-14.4473 61.9634ZM5.59078 68.6902C3.49565 68.1816 2.22079 66.0893 2.72036 64.0315C3.21993 61.9738 5.31227 60.6989 7.36999 61.1985C9.42772 61.6981 10.7026 63.7904 10.203 65.8481C9.70343 67.9059 7.64851 69.1898 5.59078 68.6902Z" fill="#FF981F"/>
<path d="M-55.9809 55.4615L-63.1578 43.6823C-66.0852 38.8777 -64.5411 32.5174 -59.7365 29.59L-47.9575 22.4129C-45.9426 21.1852 -43.8611 18.323 -43.3161 16.0782L-40.0613 2.67165C-38.7291 -2.81562 -33.1495 -6.21507 -27.6623 -4.88288L-14.2559 -1.62811C-12.0111 -1.08313 -8.5131 -1.62033 -6.49826 -2.84797L5.28077 -10.0251C10.0854 -12.9525 16.4457 -11.4084 19.3731 -6.60375L26.5502 5.17547C27.7778 7.19031 30.6399 9.27161 32.8847 9.8166L46.2913 13.0714C51.7785 14.4036 55.178 19.983 53.8458 25.4702L50.591 38.8768C50.046 41.1216 50.5834 44.6196 51.8111 46.6345L58.9881 58.4137C61.9155 63.2183 60.3714 69.5786 55.5668 72.5061L43.7876 79.6831C41.7727 80.9107 39.6912 83.773 39.1462 86.0178L35.8916 99.4236C34.5594 104.911 28.9798 108.311 23.4926 106.979L10.086 103.724C7.84123 103.179 4.34341 103.716 2.32857 104.944L-9.45065 112.121C-14.2553 115.048 -20.6156 113.504 -23.543 108.7L-30.7199 96.9205C-31.9475 94.9057 -34.8098 92.8244 -37.0546 92.2794L-50.4609 89.0246C-55.9482 87.6924 -59.3477 82.1122 -58.0155 76.625L-54.7609 63.2192C-54.2008 60.912 -54.7382 57.414 -55.9809 55.4615Z" stroke="#FF981F" stroke-width="2" stroke-linecap="round" stroke-linejoin="round"/>
</g>
</svg>
