<svg width="20" height="20" viewBox="0 0 20 20" fill="none" xmlns="http://www.w3.org/2000/svg">
<path d="M10 2.1875C5.69187 2.1875 2.1875 5.6925 2.1875 10C2.1875 14.3075 5.69219 17.8125 10 17.8125C14.3081 17.8125 17.8125 14.3075 17.8125 10C17.8125 5.6925 14.3078 2.1875 10 2.1875ZM10 16.2503C6.55344 16.2503 3.74969 13.4466 3.74969 10C3.74969 6.55406 6.55312 3.75031 10 3.75031C13.4462 3.75031 16.2497 6.55406 16.2497 10C16.2494 13.4466 13.4459 16.2503 10 16.2503Z" fill="#474B50"/>
<path d="M7.94188 7.60531C8.2313 7.2985 8.5772 7.05042 8.96063 6.87469C9.352 6.69489 9.77806 6.60315 10.2088 6.60594C10.7553 6.60594 11.2569 6.73625 11.7141 6.99687C12.1647 7.25175 12.5487 7.60962 12.8347 8.04125L13.9484 7.20844C13.5253 6.63076 12.9755 6.15763 12.3413 5.82531C11.6969 5.48344 10.9856 5.3125 10.2084 5.3125C9.56813 5.3125 8.96625 5.43625 8.40313 5.68437C7.85269 5.92242 7.35279 6.26343 6.93031 6.68906C6.50845 7.11724 6.17166 7.62158 5.93781 8.17531C5.69438 8.74219 5.57281 9.35125 5.57281 10.0003C5.57281 10.6487 5.69438 11.2572 5.93781 11.8256C6.17141 12.3791 6.50824 12.8831 6.93031 13.3106C7.35282 13.7365 7.85269 14.078 8.40313 14.3166C8.96656 14.5634 9.56844 14.6875 10.2084 14.6875C10.9856 14.6875 11.6966 14.5166 12.3413 14.1744C12.9759 13.8426 13.5258 13.3693 13.9484 12.7912L12.8347 11.9597C12.5483 12.3907 12.1644 12.7481 11.7141 13.0031C11.2569 13.2634 10.7553 13.3938 10.2088 13.3938C9.77805 13.3967 9.35195 13.3049 8.96063 13.125C8.57714 12.9494 8.23121 12.7013 7.94188 12.3944C7.65188 12.0881 7.42125 11.7284 7.25031 11.3191C7.07938 10.9097 6.99407 10.4694 6.99407 10.0003C6.99407 9.53031 7.07938 9.09062 7.25031 8.68094C7.42125 8.27125 7.65188 7.91281 7.94188 7.60531Z" fill="#474B50"/>
</svg>
