<svg width="26" height="24" viewBox="0 0 26 24" fill="none" xmlns="http://www.w3.org/2000/svg">
<path d="M21.5248 3.74848C22.7461 4.91689 23.2606 6.58527 23.2611 8.24373C23.2623 10.2269 22.5909 12.1822 21.6259 13.8929C20.4702 15.9256 18.8912 17.6847 16.9955 19.0512C15.3317 20.2489 13.3942 21.1645 11.3476 21.426C9.67868 21.6376 7.89723 21.3924 6.52824 20.3487C5.19695 19.3391 4.50421 17.7632 4.37308 16.1253C4.21869 14.1906 4.76269 12.2348 5.61548 10.517C6.65807 8.45032 8.13097 6.6323 9.93529 5.18496C11.5687 3.86321 13.4998 2.82488 15.5752 2.40487C17.2462 2.06857 19.083 2.14453 20.5843 3.03469C20.9227 3.23644 21.2376 3.47522 21.5234 3.74661C21.621 3.83751 21.8426 3.57312 21.7409 3.47661C20.466 2.26985 18.7034 1.8348 16.9888 1.93644C14.9125 2.05909 12.9081 2.88867 11.1812 4.01338C9.17368 5.32893 7.4695 7.05719 6.18145 9.08381C5.07639 10.8433 4.25757 12.8688 4.10689 14.961C3.98309 16.6683 4.33082 18.4509 5.45118 19.7944C6.57153 21.138 8.24348 21.7565 9.94228 21.7939C11.9734 21.8387 13.9731 21.14 15.7118 20.1414C17.7794 18.937 19.5631 17.3011 20.942 15.3445C22.1777 13.6017 23.1167 11.5905 23.4262 9.46149C23.6755 7.74019 23.4948 5.87334 22.5119 4.39685C22.2901 4.06464 22.0327 3.75762 21.7443 3.48129C21.6459 3.38529 21.4234 3.65035 21.5248 3.74848Z" fill="#4A3AFF"/>
<path d="M23.9216 4.56865C25.0911 6.17588 25.3354 8.21847 24.9725 10.1328C24.5359 12.4559 23.3238 14.5784 21.8127 16.3626C20.0408 18.441 17.8472 20.1177 15.3768 21.2819C13.2043 22.3082 10.7787 22.9415 8.36307 22.8154C6.39912 22.706 4.40812 22.0374 3.04518 20.5567C1.71987 19.1158 1.26225 17.1411 1.46239 15.2306C1.6999 12.9478 2.76836 10.7966 4.1369 8.98714C5.79858 6.81805 7.90709 5.03276 10.32 3.75186C12.4777 2.59733 14.9009 1.82542 17.3615 1.77979C19.3624 1.74779 21.4534 2.2261 23.0007 3.56986C23.344 3.8673 23.6529 4.20234 23.9216 4.56865C24.0286 4.7157 24.2787 4.48071 24.184 4.35052C22.9704 2.69236 21.0528 1.81283 19.0575 1.55428C16.6654 1.24489 14.2097 1.75825 12.0007 2.65788C9.40623 3.72752 7.07167 5.34024 5.15322 7.38815C3.46579 9.18895 2.07917 11.3639 1.4513 13.7675C0.94298 15.7174 0.966253 17.8721 1.97938 19.6647C2.97102 21.42 4.76315 22.5097 6.69206 22.9183C9.00552 23.408 11.4463 23.0545 13.6581 22.2903C16.2891 21.3577 18.688 19.8707 20.693 17.9294C22.5064 16.1802 24.0274 14.0564 24.8482 11.6571C25.5151 9.70928 25.6974 7.50953 24.8748 5.5726C24.6915 5.14222 24.4604 4.73376 24.1858 4.35494C24.0754 4.20321 23.8269 4.43846 23.9216 4.56865Z" fill="#4A3AFF"/>
<path d="M23.9216 4.56865C25.0911 6.17588 25.3354 8.21847 24.9725 10.1328C24.5359 12.4559 23.3238 14.5784 21.8127 16.3626C20.0408 18.441 17.8472 20.1177 15.3768 21.2819C13.2043 22.3082 10.7787 22.9415 8.36307 22.8154C6.39912 22.706 4.40812 22.0374 3.04518 20.5567C1.71987 19.1158 1.26225 17.1411 1.46239 15.2306C1.6999 12.9478 2.76836 10.7966 4.1369 8.98714C5.79858 6.81805 7.90709 5.03276 10.32 3.75186C12.4777 2.59733 14.9009 1.82542 17.3615 1.77979C19.3624 1.74779 21.4534 2.2261 23.0007 3.56986C23.344 3.8673 23.6529 4.20234 23.9216 4.56865ZM23.9216 4.56865C24.0286 4.7157 24.2787 4.48071 24.184 4.35052C22.9704 2.69236 21.0528 1.81283 19.0575 1.55428C16.6654 1.24489 14.2097 1.75825 12.0007 2.65788C9.40623 3.72752 7.07167 5.34024 5.15322 7.38815C3.46579 9.18895 2.07917 11.3639 1.4513 13.7675C0.94298 15.7174 0.966253 17.8721 1.97938 19.6647C2.97102 21.42 4.76315 22.5097 6.69206 22.9183C9.00552 23.408 11.4463 23.0545 13.6581 22.2903C16.2891 21.3577 18.688 19.8707 20.693 17.9294C22.5064 16.1802 24.0274 14.0564 24.8482 11.6571C25.5151 9.70928 25.6974 7.50953 24.8748 5.5726C24.6915 5.14222 24.4604 4.73376 24.1858 4.35494C24.0754 4.20321 23.8269 4.43846 23.9216 4.56865ZM21.5248 3.74848C22.7461 4.91689 23.2606 6.58527 23.2611 8.24373C23.2623 10.2269 22.5909 12.1822 21.6259 13.8929C20.4702 15.9256 18.8912 17.6847 16.9955 19.0512C15.3317 20.2489 13.3942 21.1645 11.3476 21.426C9.67867 21.6376 7.89723 21.3924 6.52824 20.3487C5.19695 19.3391 4.50421 17.7632 4.37308 16.1253C4.21869 14.1906 4.76269 12.2348 5.61548 10.517C6.65807 8.45032 8.13097 6.6323 9.93529 5.18496C11.5687 3.86321 13.4998 2.82488 15.5752 2.40487C17.2462 2.06857 19.083 2.14453 20.5843 3.03469C20.9227 3.23644 21.2376 3.47522 21.5234 3.74661C21.621 3.83751 21.8426 3.57312 21.7409 3.47661C20.466 2.26985 18.7034 1.8348 16.9888 1.93644C14.9125 2.05909 12.9081 2.88867 11.1812 4.01338C9.17368 5.32893 7.4695 7.05719 6.18145 9.08381C5.07639 10.8433 4.25757 12.8688 4.10689 14.961C3.98309 16.6683 4.33082 18.4509 5.45118 19.7944C6.57153 21.138 8.24348 21.7565 9.94228 21.7939C11.9734 21.8387 13.9731 21.14 15.7118 20.1414C17.7794 18.937 19.5631 17.3011 20.942 15.3445C22.1777 13.6017 23.1167 11.5905 23.4262 9.46149C23.6755 7.74019 23.4948 5.87334 22.5119 4.39685C22.2901 4.06464 22.0327 3.75762 21.7443 3.48129C21.6459 3.38529 21.4234 3.65035 21.5248 3.74848Z" stroke="#1A96F0"/>
</svg>
