<svg width="152" height="152" viewBox="0 0 152 152" fill="none" xmlns="http://www.w3.org/2000/svg">
<rect x="8" y="8" width="136" height="136" rx="68" fill="#1A96F0"/>
<g clip-path="url(#clip0_1_285)">
<mask id="path-2-outside-1_1_285" maskUnits="userSpaceOnUse" x="47.6985" y="43" width="57" height="66" fill="black">
<rect fill="white" x="47.6985" y="43" width="57" height="66"/>
<path d="M103.254 103.23L102.377 95.9714C102.376 95.9593 102.374 95.9473 102.372 95.9352C102.131 94.4523 101.44 93.0794 100.392 92.0028C99.3442 90.9263 97.9905 90.1982 96.5146 89.9174L87.5746 88.2357H87.574L85.1528 87.7803C87.4992 87.3242 89.8093 86.6973 92.0644 85.9046C93.0713 85.5494 93.9239 84.8562 94.4771 83.9429C95.0302 83.0297 95.2497 81.9529 95.0981 80.896L93.7031 71.3326H94.4814C94.9803 71.3321 95.4586 71.1336 95.8113 70.7808C96.1641 70.4281 96.3625 69.9498 96.363 69.4509V65.6305C96.3625 65.1316 96.1641 64.6533 95.8113 64.3005C95.4586 63.9478 94.9803 63.7493 94.4814 63.7488H92.9339C92.813 63.4603 92.6599 63.1864 92.4778 62.9321L91.6996 57.5971C91.148 53.8195 89.2551 50.3667 86.367 47.87C83.4789 45.3733 79.7886 43.9995 75.9709 44H75.2656C71.3947 44.0051 67.6582 45.4205 64.7554 47.9812C61.8525 50.542 59.9821 54.0727 59.4941 57.9128L58.762 63.7488H57.2313C56.7324 63.7493 56.254 63.9477 55.9012 64.3005C55.5485 64.6533 55.35 65.1316 55.3495 65.6305V69.4509C55.35 69.9498 55.5485 70.4281 55.9012 70.7809C56.254 71.1337 56.7324 71.3321 57.2313 71.3326H57.8108L56.602 80.9683C56.4758 82.0084 56.7065 83.0606 57.2562 83.9526C57.8059 84.8446 58.6421 85.5235 59.628 85.8784C61.9531 86.7005 64.337 87.3458 66.7593 87.8088L64.6965 88.2144L64.6826 88.2171L55.844 89.9552C54.4689 90.2277 53.2012 90.8897 52.1917 91.8623C51.1822 92.835 50.4736 94.0773 50.1503 95.4412C50.1463 95.4577 50.1428 95.4742 50.1399 95.4907L48.8028 102.942C48.6641 103.548 48.6637 104.177 48.8017 104.783C48.9397 105.389 49.2125 105.956 49.5999 106.442C49.9872 106.928 50.4791 107.321 51.039 107.59C51.5988 107.86 52.2123 108 52.8338 108H99.1663C99.7631 108 100.353 107.871 100.895 107.621C101.437 107.372 101.919 107.008 102.307 106.555C102.696 106.102 102.981 105.57 103.145 104.996C103.308 104.422 103.345 103.819 103.254 103.23ZM93.2544 65.6266L94.4881 65.6304L94.4814 69.4576H93.2544V65.6266ZM92.0074 72.6975L93.2426 81.1668C93.3322 81.7935 93.2017 82.432 92.8734 82.9734C92.5451 83.5148 92.0392 83.9256 91.442 84.1359C88.8436 85.0493 86.1702 85.7335 83.4525 86.1806V82.5658L84.1306 82.1415C85.1188 81.526 85.9527 80.6922 86.5685 79.7043H86.7215C87.804 79.7032 88.8418 79.2728 89.6073 78.5075C90.3728 77.7421 90.8035 76.7044 90.8049 75.622V73.5257C91.2512 73.3223 91.6582 73.0419 92.0074 72.6975ZM79.4961 82.8295C78.4031 83.5072 77.1425 83.8663 75.8564 83.8663C74.5703 83.8663 73.3097 83.5072 72.2166 82.8295L70.273 81.6135C70.2699 81.6114 70.2664 81.6095 70.2631 81.6074L68.5756 80.5516C67.7472 80.0374 67.0641 79.3197 66.5914 78.4668C66.1188 77.6139 65.8723 76.6542 65.8754 75.6791V62.9925C66.7968 62.8661 67.6787 62.5368 68.4575 62.0284C69.2363 61.52 69.8926 60.8452 70.3791 60.0526C70.9751 60.6417 71.6211 61.1779 72.3099 61.6551L72.4919 61.779C76.7579 64.6704 81.3633 63.9965 85.8369 63.2297V75.6794C85.8378 76.4159 85.6975 77.1457 85.4236 77.8294H79.1376C78.9467 77.2889 78.593 76.8208 78.1252 76.4895C77.6574 76.1582 77.0985 75.98 76.5253 75.9792H74.9331C74.1987 75.9801 73.4946 76.2722 72.9754 76.7916C72.4561 77.3109 72.164 78.015 72.1631 78.7494V78.7844C72.164 79.5188 72.4561 80.2228 72.9754 80.7421C73.4947 81.2614 74.1987 81.5535 74.9331 81.5544H76.5253C77.0985 81.5536 77.6574 81.3754 78.1252 81.0441C78.5929 80.7128 78.9466 80.2448 79.1376 79.7044H84.1916C83.8742 80.0271 83.52 80.3115 83.1364 80.5519L79.4961 82.8295ZM81.5775 83.739V88.0075C81.5771 88.1141 81.5525 88.2192 81.5056 88.3149C81.4587 88.4107 81.3906 88.4945 81.3066 88.5601L76.0116 92.6814L70.9444 88.5719C70.8014 88.4566 70.7098 88.2896 70.6894 88.1071C70.6889 88.1003 70.6889 88.0934 70.6883 88.0866C70.6868 88.0675 70.685 88.0483 70.685 88.0288V84.0831L71.2225 84.4194C72.6142 85.2822 74.2191 85.7393 75.8565 85.7392C77.4939 85.7392 79.0988 85.282 80.4904 84.4191L81.5775 83.739ZM77.4203 78.7492V78.7842C77.42 79.0215 77.3256 79.249 77.1578 79.4168C76.99 79.5846 76.7625 79.679 76.5253 79.6792H74.9331C74.6958 79.679 74.4684 79.5846 74.3006 79.4168C74.1328 79.249 74.0384 79.0215 74.0381 78.7842V78.7492C74.0384 78.5119 74.1328 78.2844 74.3006 78.1166C74.4683 77.9488 74.6958 77.8544 74.9331 77.8541H76.5253C76.7626 77.8544 76.9901 77.9488 77.1578 78.1166C77.3256 78.2844 77.42 78.5119 77.4203 78.7492ZM87.4403 77.7067C87.6208 77.046 87.7121 76.3642 87.7119 75.6793V73.9005H88.9299V75.622C88.9291 76.0812 88.7852 76.5288 88.5182 76.9024C88.2512 77.2761 87.8744 77.5573 87.4403 77.7069V77.7067ZM91.3794 65.3512V69.7301C91.3787 70.3387 91.1367 70.9221 90.7064 71.3524C90.2761 71.7827 89.6927 72.0248 89.0841 72.0255H87.7119V63.0559H89.0841C89.6927 63.0566 90.2761 63.2986 90.7064 63.729C91.1367 64.1593 91.3787 64.7427 91.3794 65.3512ZM61.3544 58.1461C61.7849 54.7591 63.4347 51.6449 65.9952 49.3863C68.5557 47.1277 71.8515 45.8794 75.2658 45.875H75.971C79.3383 45.8745 82.5932 47.0861 85.1406 49.2882C87.688 51.4903 89.3577 54.5357 89.8443 57.8676L90.3568 61.3805C89.9456 61.2482 89.5162 61.1808 89.0843 61.1809H86.8218C86.8171 61.1807 86.8126 61.1811 86.808 61.1809H86.7745L86.7708 61.1811C86.7415 61.1812 86.7123 61.1827 86.6833 61.1856L86.6708 61.187C86.6528 61.189 86.6349 61.1901 86.617 61.1933L85.9753 61.3034C81.5294 62.0693 77.33 62.7926 73.544 60.2269L73.3734 60.1106C72.4299 59.457 71.5808 58.6768 70.8499 57.7919C70.7429 57.6623 70.6031 57.5638 70.4451 57.5068C70.287 57.4498 70.1166 57.4363 69.9515 57.4677C69.7864 57.4992 69.6329 57.5744 69.5069 57.6855C69.3808 57.7966 69.287 57.9396 69.2351 58.0994C68.9432 59.0035 68.3694 59.7904 67.5979 60.3449C66.8264 60.8995 65.8977 61.1924 64.9476 61.181L64.9435 61.1811L64.938 61.1809H62.6284C62.0421 61.181 61.4625 61.3057 60.928 61.5466L61.3544 58.1461ZM60.3331 65.3511C60.3339 64.7426 60.5759 64.1593 61.0062 63.729C61.4364 63.2988 62.0198 63.0567 62.6283 63.056H64.0004V72.0255H62.6283C62.0197 72.0248 61.4363 71.7827 61.006 71.3524C60.5757 70.9221 60.3337 70.3387 60.333 69.7301L60.3331 65.3511ZM57.2244 69.4509L57.2311 65.6238H58.458V69.4548L57.2244 69.4509ZM60.2534 84.1109C59.6695 83.9004 59.1744 83.498 58.849 82.9695C58.5236 82.441 58.3873 81.8177 58.4623 81.2016L59.5493 72.5364C59.9389 72.966 60.4142 73.3092 60.9444 73.5442C61.4747 73.7791 62.0483 73.9005 62.6283 73.9005H64.0004V75.6793C63.9963 76.9724 64.3232 78.2452 64.95 79.3763C65.5768 80.5074 66.4827 81.4593 67.5814 82.1414L68.8101 82.9101V86.26C65.8969 85.8131 63.0321 85.0936 60.2534 84.1109ZM69.1203 89.2554C69.2818 89.5527 69.5003 89.8153 69.7633 90.0283L74.947 94.232C75.2423 94.4736 75.6112 94.6074 75.9928 94.6111C76.3744 94.6148 76.7458 94.4882 77.0458 94.2524L82.4579 90.0401C82.7173 89.8376 82.9353 89.587 83.1001 89.3021L86.347 89.9128C86.2263 90.2799 85.9999 90.6032 85.6963 90.8423L76.0509 98.3491C76.0114 98.38 75.9626 98.3965 75.9125 98.396C75.8624 98.3955 75.814 98.3779 75.7751 98.3462L66.5351 90.8522C66.2289 90.604 66.0059 90.268 65.8961 89.8894L69.1203 89.2554ZM100.888 105.331C100.675 105.58 100.411 105.78 100.114 105.917C99.8171 106.054 99.4936 106.125 99.1663 106.125H52.8338C52.4929 106.125 52.1564 106.048 51.8495 105.9C51.5426 105.751 51.2733 105.535 51.0616 105.268C50.85 105.001 50.7016 104.689 50.6275 104.356C50.5534 104.024 50.5555 103.678 50.6338 103.347C50.6376 103.33 50.641 103.313 50.6439 103.297L51.9806 95.8478C52.2245 94.8393 52.7519 93.9217 53.5007 93.2035C54.2494 92.4853 55.1882 91.9965 56.2059 91.7949L64.0504 90.2524C64.2477 91.0625 64.706 91.7853 65.3548 92.3091L74.5946 99.8029C74.962 100.103 75.4204 100.269 75.8946 100.273C76.3687 100.278 76.8303 100.121 77.2034 99.8281L86.8489 92.3213C87.5157 91.8037 87.9915 91.0792 88.2014 90.2616L96.1675 91.76C97.2614 91.9681 98.2651 92.5069 99.043 93.3036C99.821 94.1003 100.336 95.1165 100.518 96.215L101.394 103.471C101.396 103.483 101.397 103.495 101.399 103.507C101.451 103.83 101.432 104.16 101.344 104.475C101.256 104.79 101.1 105.082 100.887 105.331H100.888Z"/>
</mask>
<path d="M103.254 103.23L102.377 95.9714C102.376 95.9593 102.374 95.9473 102.372 95.9352C102.131 94.4523 101.44 93.0794 100.392 92.0028C99.3442 90.9263 97.9905 90.1982 96.5146 89.9174L87.5746 88.2357H87.574L85.1528 87.7803C87.4992 87.3242 89.8093 86.6973 92.0644 85.9046C93.0713 85.5494 93.9239 84.8562 94.4771 83.9429C95.0302 83.0297 95.2497 81.9529 95.0981 80.896L93.7031 71.3326H94.4814C94.9803 71.3321 95.4586 71.1336 95.8113 70.7808C96.1641 70.4281 96.3625 69.9498 96.363 69.4509V65.6305C96.3625 65.1316 96.1641 64.6533 95.8113 64.3005C95.4586 63.9478 94.9803 63.7493 94.4814 63.7488H92.9339C92.813 63.4603 92.6599 63.1864 92.4778 62.9321L91.6996 57.5971C91.148 53.8195 89.2551 50.3667 86.367 47.87C83.4789 45.3733 79.7886 43.9995 75.9709 44H75.2656C71.3947 44.0051 67.6582 45.4205 64.7554 47.9812C61.8525 50.542 59.9821 54.0727 59.4941 57.9128L58.762 63.7488H57.2313C56.7324 63.7493 56.254 63.9477 55.9012 64.3005C55.5485 64.6533 55.35 65.1316 55.3495 65.6305V69.4509C55.35 69.9498 55.5485 70.4281 55.9012 70.7809C56.254 71.1337 56.7324 71.3321 57.2313 71.3326H57.8108L56.602 80.9683C56.4758 82.0084 56.7065 83.0606 57.2562 83.9526C57.8059 84.8446 58.6421 85.5235 59.628 85.8784C61.9531 86.7005 64.337 87.3458 66.7593 87.8088L64.6965 88.2144L64.6826 88.2171L55.844 89.9552C54.4689 90.2277 53.2012 90.8897 52.1917 91.8623C51.1822 92.835 50.4736 94.0773 50.1503 95.4412C50.1463 95.4577 50.1428 95.4742 50.1399 95.4907L48.8028 102.942C48.6641 103.548 48.6637 104.177 48.8017 104.783C48.9397 105.389 49.2125 105.956 49.5999 106.442C49.9872 106.928 50.4791 107.321 51.039 107.59C51.5988 107.86 52.2123 108 52.8338 108H99.1663C99.7631 108 100.353 107.871 100.895 107.621C101.437 107.372 101.919 107.008 102.307 106.555C102.696 106.102 102.981 105.57 103.145 104.996C103.308 104.422 103.345 103.819 103.254 103.23ZM93.2544 65.6266L94.4881 65.6304L94.4814 69.4576H93.2544V65.6266ZM92.0074 72.6975L93.2426 81.1668C93.3322 81.7935 93.2017 82.432 92.8734 82.9734C92.5451 83.5148 92.0392 83.9256 91.442 84.1359C88.8436 85.0493 86.1702 85.7335 83.4525 86.1806V82.5658L84.1306 82.1415C85.1188 81.526 85.9527 80.6922 86.5685 79.7043H86.7215C87.804 79.7032 88.8418 79.2728 89.6073 78.5075C90.3728 77.7421 90.8035 76.7044 90.8049 75.622V73.5257C91.2512 73.3223 91.6582 73.0419 92.0074 72.6975ZM79.4961 82.8295C78.4031 83.5072 77.1425 83.8663 75.8564 83.8663C74.5703 83.8663 73.3097 83.5072 72.2166 82.8295L70.273 81.6135C70.2699 81.6114 70.2664 81.6095 70.2631 81.6074L68.5756 80.5516C67.7472 80.0374 67.0641 79.3197 66.5914 78.4668C66.1188 77.6139 65.8723 76.6542 65.8754 75.6791V62.9925C66.7968 62.8661 67.6787 62.5368 68.4575 62.0284C69.2363 61.52 69.8926 60.8452 70.3791 60.0526C70.9751 60.6417 71.6211 61.1779 72.3099 61.6551L72.4919 61.779C76.7579 64.6704 81.3633 63.9965 85.8369 63.2297V75.6794C85.8378 76.4159 85.6975 77.1457 85.4236 77.8294H79.1376C78.9467 77.2889 78.593 76.8208 78.1252 76.4895C77.6574 76.1582 77.0985 75.98 76.5253 75.9792H74.9331C74.1987 75.9801 73.4946 76.2722 72.9754 76.7916C72.4561 77.3109 72.164 78.015 72.1631 78.7494V78.7844C72.164 79.5188 72.4561 80.2228 72.9754 80.7421C73.4947 81.2614 74.1987 81.5535 74.9331 81.5544H76.5253C77.0985 81.5536 77.6574 81.3754 78.1252 81.0441C78.5929 80.7128 78.9466 80.2448 79.1376 79.7044H84.1916C83.8742 80.0271 83.52 80.3115 83.1364 80.5519L79.4961 82.8295ZM81.5775 83.739V88.0075C81.5771 88.1141 81.5525 88.2192 81.5056 88.3149C81.4587 88.4107 81.3906 88.4945 81.3066 88.5601L76.0116 92.6814L70.9444 88.5719C70.8014 88.4566 70.7098 88.2896 70.6894 88.1071C70.6889 88.1003 70.6889 88.0934 70.6883 88.0866C70.6868 88.0675 70.685 88.0483 70.685 88.0288V84.0831L71.2225 84.4194C72.6142 85.2822 74.2191 85.7393 75.8565 85.7392C77.4939 85.7392 79.0988 85.282 80.4904 84.4191L81.5775 83.739ZM77.4203 78.7492V78.7842C77.42 79.0215 77.3256 79.249 77.1578 79.4168C76.99 79.5846 76.7625 79.679 76.5253 79.6792H74.9331C74.6958 79.679 74.4684 79.5846 74.3006 79.4168C74.1328 79.249 74.0384 79.0215 74.0381 78.7842V78.7492C74.0384 78.5119 74.1328 78.2844 74.3006 78.1166C74.4683 77.9488 74.6958 77.8544 74.9331 77.8541H76.5253C76.7626 77.8544 76.9901 77.9488 77.1578 78.1166C77.3256 78.2844 77.42 78.5119 77.4203 78.7492ZM87.4403 77.7067C87.6208 77.046 87.7121 76.3642 87.7119 75.6793V73.9005H88.9299V75.622C88.9291 76.0812 88.7852 76.5288 88.5182 76.9024C88.2512 77.2761 87.8744 77.5573 87.4403 77.7069V77.7067ZM91.3794 65.3512V69.7301C91.3787 70.3387 91.1367 70.9221 90.7064 71.3524C90.2761 71.7827 89.6927 72.0248 89.0841 72.0255H87.7119V63.0559H89.0841C89.6927 63.0566 90.2761 63.2986 90.7064 63.729C91.1367 64.1593 91.3787 64.7427 91.3794 65.3512ZM61.3544 58.1461C61.7849 54.7591 63.4347 51.6449 65.9952 49.3863C68.5557 47.1277 71.8515 45.8794 75.2658 45.875H75.971C79.3383 45.8745 82.5932 47.0861 85.1406 49.2882C87.688 51.4903 89.3577 54.5357 89.8443 57.8676L90.3568 61.3805C89.9456 61.2482 89.5162 61.1808 89.0843 61.1809H86.8218C86.8171 61.1807 86.8126 61.1811 86.808 61.1809H86.7745L86.7708 61.1811C86.7415 61.1812 86.7123 61.1827 86.6833 61.1856L86.6708 61.187C86.6528 61.189 86.6349 61.1901 86.617 61.1933L85.9753 61.3034C81.5294 62.0693 77.33 62.7926 73.544 60.2269L73.3734 60.1106C72.4299 59.457 71.5808 58.6768 70.8499 57.7919C70.7429 57.6623 70.6031 57.5638 70.4451 57.5068C70.287 57.4498 70.1166 57.4363 69.9515 57.4677C69.7864 57.4992 69.6329 57.5744 69.5069 57.6855C69.3808 57.7966 69.287 57.9396 69.2351 58.0994C68.9432 59.0035 68.3694 59.7904 67.5979 60.3449C66.8264 60.8995 65.8977 61.1924 64.9476 61.181L64.9435 61.1811L64.938 61.1809H62.6284C62.0421 61.181 61.4625 61.3057 60.928 61.5466L61.3544 58.1461ZM60.3331 65.3511C60.3339 64.7426 60.5759 64.1593 61.0062 63.729C61.4364 63.2988 62.0198 63.0567 62.6283 63.056H64.0004V72.0255H62.6283C62.0197 72.0248 61.4363 71.7827 61.006 71.3524C60.5757 70.9221 60.3337 70.3387 60.333 69.7301L60.3331 65.3511ZM57.2244 69.4509L57.2311 65.6238H58.458V69.4548L57.2244 69.4509ZM60.2534 84.1109C59.6695 83.9004 59.1744 83.498 58.849 82.9695C58.5236 82.441 58.3873 81.8177 58.4623 81.2016L59.5493 72.5364C59.9389 72.966 60.4142 73.3092 60.9444 73.5442C61.4747 73.7791 62.0483 73.9005 62.6283 73.9005H64.0004V75.6793C63.9963 76.9724 64.3232 78.2452 64.95 79.3763C65.5768 80.5074 66.4827 81.4593 67.5814 82.1414L68.8101 82.9101V86.26C65.8969 85.8131 63.0321 85.0936 60.2534 84.1109ZM69.1203 89.2554C69.2818 89.5527 69.5003 89.8153 69.7633 90.0283L74.947 94.232C75.2423 94.4736 75.6112 94.6074 75.9928 94.6111C76.3744 94.6148 76.7458 94.4882 77.0458 94.2524L82.4579 90.0401C82.7173 89.8376 82.9353 89.587 83.1001 89.3021L86.347 89.9128C86.2263 90.2799 85.9999 90.6032 85.6963 90.8423L76.0509 98.3491C76.0114 98.38 75.9626 98.3965 75.9125 98.396C75.8624 98.3955 75.814 98.3779 75.7751 98.3462L66.5351 90.8522C66.2289 90.604 66.0059 90.268 65.8961 89.8894L69.1203 89.2554ZM100.888 105.331C100.675 105.58 100.411 105.78 100.114 105.917C99.8171 106.054 99.4936 106.125 99.1663 106.125H52.8338C52.4929 106.125 52.1564 106.048 51.8495 105.9C51.5426 105.751 51.2733 105.535 51.0616 105.268C50.85 105.001 50.7016 104.689 50.6275 104.356C50.5534 104.024 50.5555 103.678 50.6338 103.347C50.6376 103.33 50.641 103.313 50.6439 103.297L51.9806 95.8478C52.2245 94.8393 52.7519 93.9217 53.5007 93.2035C54.2494 92.4853 55.1882 91.9965 56.2059 91.7949L64.0504 90.2524C64.2477 91.0625 64.706 91.7853 65.3548 92.3091L74.5946 99.8029C74.962 100.103 75.4204 100.269 75.8946 100.273C76.3687 100.278 76.8303 100.121 77.2034 99.8281L86.8489 92.3213C87.5157 91.8037 87.9915 91.0792 88.2014 90.2616L96.1675 91.76C97.2614 91.9681 98.2651 92.5069 99.043 93.3036C99.821 94.1003 100.336 95.1165 100.518 96.215L101.394 103.471C101.396 103.483 101.397 103.495 101.399 103.507C101.451 103.83 101.432 104.16 101.344 104.475C101.256 104.79 101.1 105.082 100.887 105.331H100.888Z" fill="white"/>
<path d="M103.254 103.23L102.377 95.9714C102.376 95.9593 102.374 95.9473 102.372 95.9352C102.131 94.4523 101.44 93.0794 100.392 92.0028C99.3442 90.9263 97.9905 90.1982 96.5146 89.9174L87.5746 88.2357H87.574L85.1528 87.7803C87.4992 87.3242 89.8093 86.6973 92.0644 85.9046C93.0713 85.5494 93.9239 84.8562 94.4771 83.9429C95.0302 83.0297 95.2497 81.9529 95.0981 80.896L93.7031 71.3326H94.4814C94.9803 71.3321 95.4586 71.1336 95.8113 70.7808C96.1641 70.4281 96.3625 69.9498 96.363 69.4509V65.6305C96.3625 65.1316 96.1641 64.6533 95.8113 64.3005C95.4586 63.9478 94.9803 63.7493 94.4814 63.7488H92.9339C92.813 63.4603 92.6599 63.1864 92.4778 62.9321L91.6996 57.5971C91.148 53.8195 89.2551 50.3667 86.367 47.87C83.4789 45.3733 79.7886 43.9995 75.9709 44H75.2656C71.3947 44.0051 67.6582 45.4205 64.7554 47.9812C61.8525 50.542 59.9821 54.0727 59.4941 57.9128L58.762 63.7488H57.2313C56.7324 63.7493 56.254 63.9477 55.9012 64.3005C55.5485 64.6533 55.35 65.1316 55.3495 65.6305V69.4509C55.35 69.9498 55.5485 70.4281 55.9012 70.7809C56.254 71.1337 56.7324 71.3321 57.2313 71.3326H57.8108L56.602 80.9683C56.4758 82.0084 56.7065 83.0606 57.2562 83.9526C57.8059 84.8446 58.6421 85.5235 59.628 85.8784C61.9531 86.7005 64.337 87.3458 66.7593 87.8088L64.6965 88.2144L64.6826 88.2171L55.844 89.9552C54.4689 90.2277 53.2012 90.8897 52.1917 91.8623C51.1822 92.835 50.4736 94.0773 50.1503 95.4412C50.1463 95.4577 50.1428 95.4742 50.1399 95.4907L48.8028 102.942C48.6641 103.548 48.6637 104.177 48.8017 104.783C48.9397 105.389 49.2125 105.956 49.5999 106.442C49.9872 106.928 50.4791 107.321 51.039 107.59C51.5988 107.86 52.2123 108 52.8338 108H99.1663C99.7631 108 100.353 107.871 100.895 107.621C101.437 107.372 101.919 107.008 102.307 106.555C102.696 106.102 102.981 105.57 103.145 104.996C103.308 104.422 103.345 103.819 103.254 103.23ZM93.2544 65.6266L94.4881 65.6304L94.4814 69.4576H93.2544V65.6266ZM92.0074 72.6975L93.2426 81.1668C93.3322 81.7935 93.2017 82.432 92.8734 82.9734C92.5451 83.5148 92.0392 83.9256 91.442 84.1359C88.8436 85.0493 86.1702 85.7335 83.4525 86.1806V82.5658L84.1306 82.1415C85.1188 81.526 85.9527 80.6922 86.5685 79.7043H86.7215C87.804 79.7032 88.8418 79.2728 89.6073 78.5075C90.3728 77.7421 90.8035 76.7044 90.8049 75.622V73.5257C91.2512 73.3223 91.6582 73.0419 92.0074 72.6975ZM79.4961 82.8295C78.4031 83.5072 77.1425 83.8663 75.8564 83.8663C74.5703 83.8663 73.3097 83.5072 72.2166 82.8295L70.273 81.6135C70.2699 81.6114 70.2664 81.6095 70.2631 81.6074L68.5756 80.5516C67.7472 80.0374 67.0641 79.3197 66.5914 78.4668C66.1188 77.6139 65.8723 76.6542 65.8754 75.6791V62.9925C66.7968 62.8661 67.6787 62.5368 68.4575 62.0284C69.2363 61.52 69.8926 60.8452 70.3791 60.0526C70.9751 60.6417 71.6211 61.1779 72.3099 61.6551L72.4919 61.779C76.7579 64.6704 81.3633 63.9965 85.8369 63.2297V75.6794C85.8378 76.4159 85.6975 77.1457 85.4236 77.8294H79.1376C78.9467 77.2889 78.593 76.8208 78.1252 76.4895C77.6574 76.1582 77.0985 75.98 76.5253 75.9792H74.9331C74.1987 75.9801 73.4946 76.2722 72.9754 76.7916C72.4561 77.3109 72.164 78.015 72.1631 78.7494V78.7844C72.164 79.5188 72.4561 80.2228 72.9754 80.7421C73.4947 81.2614 74.1987 81.5535 74.9331 81.5544H76.5253C77.0985 81.5536 77.6574 81.3754 78.1252 81.0441C78.5929 80.7128 78.9466 80.2448 79.1376 79.7044H84.1916C83.8742 80.0271 83.52 80.3115 83.1364 80.5519L79.4961 82.8295ZM81.5775 83.739V88.0075C81.5771 88.1141 81.5525 88.2192 81.5056 88.3149C81.4587 88.4107 81.3906 88.4945 81.3066 88.5601L76.0116 92.6814L70.9444 88.5719C70.8014 88.4566 70.7098 88.2896 70.6894 88.1071C70.6889 88.1003 70.6889 88.0934 70.6883 88.0866C70.6868 88.0675 70.685 88.0483 70.685 88.0288V84.0831L71.2225 84.4194C72.6142 85.2822 74.2191 85.7393 75.8565 85.7392C77.4939 85.7392 79.0988 85.282 80.4904 84.4191L81.5775 83.739ZM77.4203 78.7492V78.7842C77.42 79.0215 77.3256 79.249 77.1578 79.4168C76.99 79.5846 76.7625 79.679 76.5253 79.6792H74.9331C74.6958 79.679 74.4684 79.5846 74.3006 79.4168C74.1328 79.249 74.0384 79.0215 74.0381 78.7842V78.7492C74.0384 78.5119 74.1328 78.2844 74.3006 78.1166C74.4683 77.9488 74.6958 77.8544 74.9331 77.8541H76.5253C76.7626 77.8544 76.9901 77.9488 77.1578 78.1166C77.3256 78.2844 77.42 78.5119 77.4203 78.7492ZM87.4403 77.7067C87.6208 77.046 87.7121 76.3642 87.7119 75.6793V73.9005H88.9299V75.622C88.9291 76.0812 88.7852 76.5288 88.5182 76.9024C88.2512 77.2761 87.8744 77.5573 87.4403 77.7069V77.7067ZM91.3794 65.3512V69.7301C91.3787 70.3387 91.1367 70.9221 90.7064 71.3524C90.2761 71.7827 89.6927 72.0248 89.0841 72.0255H87.7119V63.0559H89.0841C89.6927 63.0566 90.2761 63.2986 90.7064 63.729C91.1367 64.1593 91.3787 64.7427 91.3794 65.3512ZM61.3544 58.1461C61.7849 54.7591 63.4347 51.6449 65.9952 49.3863C68.5557 47.1277 71.8515 45.8794 75.2658 45.875H75.971C79.3383 45.8745 82.5932 47.0861 85.1406 49.2882C87.688 51.4903 89.3577 54.5357 89.8443 57.8676L90.3568 61.3805C89.9456 61.2482 89.5162 61.1808 89.0843 61.1809H86.8218C86.8171 61.1807 86.8126 61.1811 86.808 61.1809H86.7745L86.7708 61.1811C86.7415 61.1812 86.7123 61.1827 86.6833 61.1856L86.6708 61.187C86.6528 61.189 86.6349 61.1901 86.617 61.1933L85.9753 61.3034C81.5294 62.0693 77.33 62.7926 73.544 60.2269L73.3734 60.1106C72.4299 59.457 71.5808 58.6768 70.8499 57.7919C70.7429 57.6623 70.6031 57.5638 70.4451 57.5068C70.287 57.4498 70.1166 57.4363 69.9515 57.4677C69.7864 57.4992 69.6329 57.5744 69.5069 57.6855C69.3808 57.7966 69.287 57.9396 69.2351 58.0994C68.9432 59.0035 68.3694 59.7904 67.5979 60.3449C66.8264 60.8995 65.8977 61.1924 64.9476 61.181L64.9435 61.1811L64.938 61.1809H62.6284C62.0421 61.181 61.4625 61.3057 60.928 61.5466L61.3544 58.1461ZM60.3331 65.3511C60.3339 64.7426 60.5759 64.1593 61.0062 63.729C61.4364 63.2988 62.0198 63.0567 62.6283 63.056H64.0004V72.0255H62.6283C62.0197 72.0248 61.4363 71.7827 61.006 71.3524C60.5757 70.9221 60.3337 70.3387 60.333 69.7301L60.3331 65.3511ZM57.2244 69.4509L57.2311 65.6238H58.458V69.4548L57.2244 69.4509ZM60.2534 84.1109C59.6695 83.9004 59.1744 83.498 58.849 82.9695C58.5236 82.441 58.3873 81.8177 58.4623 81.2016L59.5493 72.5364C59.9389 72.966 60.4142 73.3092 60.9444 73.5442C61.4747 73.7791 62.0483 73.9005 62.6283 73.9005H64.0004V75.6793C63.9963 76.9724 64.3232 78.2452 64.95 79.3763C65.5768 80.5074 66.4827 81.4593 67.5814 82.1414L68.8101 82.9101V86.26C65.8969 85.8131 63.0321 85.0936 60.2534 84.1109ZM69.1203 89.2554C69.2818 89.5527 69.5003 89.8153 69.7633 90.0283L74.947 94.232C75.2423 94.4736 75.6112 94.6074 75.9928 94.6111C76.3744 94.6148 76.7458 94.4882 77.0458 94.2524L82.4579 90.0401C82.7173 89.8376 82.9353 89.587 83.1001 89.3021L86.347 89.9128C86.2263 90.2799 85.9999 90.6032 85.6963 90.8423L76.0509 98.3491C76.0114 98.38 75.9626 98.3965 75.9125 98.396C75.8624 98.3955 75.814 98.3779 75.7751 98.3462L66.5351 90.8522C66.2289 90.604 66.0059 90.268 65.8961 89.8894L69.1203 89.2554ZM100.888 105.331C100.675 105.58 100.411 105.78 100.114 105.917C99.8171 106.054 99.4936 106.125 99.1663 106.125H52.8338C52.4929 106.125 52.1564 106.048 51.8495 105.9C51.5426 105.751 51.2733 105.535 51.0616 105.268C50.85 105.001 50.7016 104.689 50.6275 104.356C50.5534 104.024 50.5555 103.678 50.6338 103.347C50.6376 103.33 50.641 103.313 50.6439 103.297L51.9806 95.8478C52.2245 94.8393 52.7519 93.9217 53.5007 93.2035C54.2494 92.4853 55.1882 91.9965 56.2059 91.7949L64.0504 90.2524C64.2477 91.0625 64.706 91.7853 65.3548 92.3091L74.5946 99.8029C74.962 100.103 75.4204 100.269 75.8946 100.273C76.3687 100.278 76.8303 100.121 77.2034 99.8281L86.8489 92.3213C87.5157 91.8037 87.9915 91.0792 88.2014 90.2616L96.1675 91.76C97.2614 91.9681 98.2651 92.5069 99.043 93.3036C99.821 94.1003 100.336 95.1165 100.518 96.215L101.394 103.471C101.396 103.483 101.397 103.495 101.399 103.507C101.451 103.83 101.432 104.16 101.344 104.475C101.256 104.79 101.1 105.082 100.887 105.331H100.888Z" stroke="white" mask="url(#path-2-outside-1_1_285)"/>
</g>
<rect x="8" y="8" width="136" height="136" rx="68" stroke="white" stroke-width="16"/>
<defs>
<clipPath id="clip0_1_285">
<rect width="64" height="64" fill="white" transform="translate(44 44)"/>
</clipPath>
</defs>
</svg>
