<svg width="152" height="152" viewBox="0 0 152 152" fill="none" xmlns="http://www.w3.org/2000/svg">
<rect x="8" y="8" width="136" height="136" rx="68" fill="#FF981F"/>
<g clip-path="url(#clip0_1_245)">
<path d="M85.1725 69.65C84.4365 69.5688 83.6984 69.7832 83.1206 70.2462C82.5427 70.7092 82.1725 71.3828 82.0913 72.1187C82.01 72.8547 82.2245 73.5928 82.6875 74.1707C83.1505 74.7485 83.824 75.1188 84.56 75.2C84.6634 75.2114 84.7673 75.2173 84.8713 75.2175C85.5839 75.2148 86.2685 74.9397 86.7849 74.4486C87.3013 73.9575 87.6105 73.2875 87.649 72.5759C87.6875 71.8643 87.4525 71.1649 86.992 70.6209C86.5316 70.077 85.8807 69.7296 85.1725 69.65ZM85.7775 72.525C85.7644 72.6446 85.7276 72.7604 85.6695 72.8657C85.6114 72.9711 85.5329 73.0639 85.4388 73.1387C85.3246 73.2303 85.1901 73.2931 85.0466 73.322C84.9032 73.3509 84.7549 73.345 84.6142 73.3048C84.4735 73.2646 84.3444 73.1913 84.2379 73.091C84.1313 72.9907 84.0503 72.8664 84.0017 72.7283C83.953 72.5903 83.9381 72.4427 83.9582 72.2977C83.9784 72.1528 84.0329 72.0148 84.1173 71.8952C84.2017 71.7757 84.3136 71.6781 84.4434 71.6107C84.5733 71.5432 84.7174 71.5078 84.8638 71.5075C84.8979 71.5056 84.9321 71.5056 84.9663 71.5075C85.2079 71.5345 85.4291 71.6563 85.5811 71.8461C85.7332 72.0359 85.8038 72.2782 85.7775 72.52V72.525ZM105.625 100.839C105.44 100.839 105.258 100.894 105.104 100.997C104.95 101.1 104.83 101.246 104.759 101.417C104.688 101.589 104.669 101.777 104.706 101.959C104.742 102.141 104.831 102.308 104.962 102.439C105.093 102.57 105.26 102.66 105.442 102.696C105.624 102.732 105.812 102.713 105.984 102.642C106.155 102.571 106.301 102.451 106.405 102.297C106.508 102.143 106.562 101.962 106.562 101.776C106.562 101.528 106.464 101.289 106.288 101.113C106.112 100.938 105.874 100.839 105.625 100.839ZM47.3925 50.0287C47.3925 49.8433 47.3375 49.6621 47.2345 49.5079C47.1315 49.3537 46.9851 49.2336 46.8138 49.1626C46.6425 49.0917 46.454 49.0731 46.2721 49.1093C46.0902 49.1454 45.9232 49.2347 45.7921 49.3658C45.661 49.4969 45.5717 49.664 45.5355 49.8458C45.4993 50.0277 45.5179 50.2162 45.5889 50.3875C45.6598 50.5588 45.78 50.7052 45.9342 50.8082C46.0883 50.9113 46.2696 50.9662 46.455 50.9662C46.7036 50.9662 46.9421 50.8675 47.1179 50.6917C47.2937 50.5158 47.3925 50.2774 47.3925 50.0287ZM106.537 105.614H103.287C103.099 105.611 102.914 105.572 102.741 105.498C102.568 105.424 102.412 105.316 102.281 105.182C102.149 105.047 102.046 104.888 101.976 104.713C101.907 104.538 101.872 104.352 101.875 104.164V89.6825C101.87 89.3039 102.015 88.9386 102.278 88.6667C102.542 88.3949 102.903 88.2387 103.281 88.2325H106.531C106.78 88.2325 107.018 88.1337 107.194 87.9579C107.37 87.7821 107.469 87.5436 107.469 87.295C107.469 87.0464 107.37 86.8079 107.194 86.6321C107.018 86.4563 106.78 86.3575 106.531 86.3575H103.281C102.538 86.3623 101.818 86.6181 101.238 87.0835C100.658 87.5488 100.253 88.1965 100.088 88.9212L95.5 86.9775C95.4594 86.9603 95.4177 86.9461 95.375 86.935C94.2357 86.6357 93.0364 86.653 91.9062 86.985L80.5563 90.3212C80.0603 90.4688 79.601 90.7193 79.2083 91.0564C78.8157 91.3935 78.4985 91.8096 78.2775 92.2775C78.0798 92.6955 77.9612 93.1464 77.9275 93.6075L71.0975 90.6075C71.053 90.588 71.007 90.5721 70.96 90.56C70.3955 90.4117 69.8042 90.3968 69.2329 90.5165C68.6617 90.6363 68.1262 90.8874 67.6688 91.25C67.1968 91.6232 66.8176 92.1006 66.5609 92.6447C66.3041 93.1889 66.1769 93.7851 66.189 94.3867C66.2011 94.9882 66.3522 95.5788 66.6307 96.1122C66.9091 96.6456 67.3071 97.1073 67.7938 97.4612L77.085 104.395C78.8463 105.713 80.9874 106.426 83.1875 106.425C83.5633 106.425 83.9389 106.405 84.3125 106.364H84.3462L100 104.055V104.164C99.9953 105.039 100.338 105.881 100.953 106.505C101.568 107.128 102.406 107.482 103.281 107.489H106.531C106.78 107.489 107.018 107.39 107.194 107.214C107.37 107.038 107.469 106.8 107.469 106.551C107.469 106.303 107.37 106.064 107.194 105.888C107.018 105.713 106.78 105.614 106.531 105.614H106.537ZM100 102.16L84.0962 104.5C82.002 104.729 79.899 104.154 78.2125 102.891L68.9137 95.9512L68.8962 95.9387C68.6446 95.7556 68.4387 95.5168 68.2945 95.241C68.1503 94.9651 68.0718 94.6597 68.065 94.3486C68.0582 94.0374 68.1234 93.7289 68.2554 93.4471C68.3875 93.1652 68.5828 92.9177 68.8263 92.7237C69.0484 92.5493 69.3064 92.4264 69.5819 92.364C69.8573 92.3015 70.1431 92.301 70.4188 92.3625L78.5137 95.9125C78.8424 96.4269 79.2952 96.8505 79.8303 97.1442C80.3654 97.438 80.9658 97.5926 81.5762 97.5937C81.8451 97.5916 82.1129 97.5601 82.375 97.5L90.4375 95.6812C90.6802 95.6265 90.8912 95.4777 91.0241 95.2674C91.157 95.0571 91.201 94.8027 91.1463 94.56C91.0915 94.3173 90.9427 94.1063 90.7324 93.9734C90.5221 93.8405 90.2677 93.7965 90.025 93.8512L81.9625 95.675C81.8357 95.7033 81.7062 95.7179 81.5762 95.7187C81.2248 95.7164 80.8819 95.6102 80.5906 95.4136C80.2992 95.217 80.0725 94.9388 79.9388 94.6137C79.8361 94.3703 79.786 94.108 79.7919 93.8439C79.7977 93.5798 79.8592 93.3199 79.9725 93.0812C80.0788 92.8508 80.2332 92.6459 80.4253 92.4801C80.6174 92.3143 80.8428 92.1915 81.0863 92.12L92.4362 88.7837C93.218 88.5544 94.0467 88.5367 94.8375 88.7325L100 90.92V102.16ZM81.625 86.21C82.1356 86.2107 82.6413 86.1107 83.1132 85.9158C83.5851 85.7208 84.0138 85.4347 84.375 85.0737L98.335 71.125C98.6962 70.7639 98.9827 70.3352 99.1782 69.8633C99.3736 69.3915 99.4742 68.8857 99.4742 68.375C99.4742 67.8643 99.3736 67.3585 99.1782 66.8867C98.9827 66.4148 98.6962 65.9861 98.335 65.625L84.375 51.685C83.6662 50.9785 82.713 50.5716 81.7125 50.5483C80.712 50.525 79.7409 50.8872 79 51.56L75.0238 47.9475C73.7822 46.8271 72.2839 46.0295 70.6612 45.625L65.3625 44.3C63.1033 43.7417 60.7211 43.9742 58.6125 44.9587L51.14 48.4587V48.325C51.1397 47.5873 50.8466 46.88 50.3251 46.3583C49.8036 45.8366 49.0964 45.5432 48.3587 45.5425H44.9375C44.6889 45.5425 44.4504 45.6413 44.2746 45.8171C44.0988 45.9929 44 46.2314 44 46.48C44 46.7286 44.0988 46.9671 44.2746 47.1429C44.4504 47.3187 44.6889 47.4175 44.9375 47.4175H48.3587C48.5983 47.4191 48.8276 47.5155 48.9964 47.6855C49.1653 47.8555 49.26 48.0854 49.26 48.325V61.8525C49.2615 61.9722 49.2393 62.0911 49.1947 62.2022C49.1501 62.3134 49.0839 62.4146 49 62.5C48.9168 62.5837 48.8179 62.6501 48.7089 62.6954C48.5999 62.7407 48.483 62.7639 48.365 62.7637H44.945C44.6964 62.7637 44.4579 62.8625 44.2821 63.0383C44.1063 63.2141 44.0075 63.4526 44.0075 63.7012C44.0075 63.9499 44.1063 64.1883 44.2821 64.3642C44.4579 64.54 44.6964 64.6387 44.945 64.6387H48.3663C49.076 64.6391 49.7588 64.3669 50.2738 63.8785C50.7888 63.39 51.0966 62.7225 51.1337 62.0137L54.9475 63.0575C55.0087 63.0748 55.0715 63.0853 55.135 63.0887L62.0387 63.535L65.9562 64.5975L64.9188 65.6325C64.5576 65.9936 64.2711 66.4223 64.0756 66.8942C63.8801 67.366 63.7795 67.8718 63.7795 68.3825C63.7795 68.8932 63.8801 69.399 64.0756 69.8708C64.2711 70.3427 64.5576 70.7714 64.9188 71.1325L78.875 85.0737C79.2362 85.4347 79.6649 85.7208 80.1368 85.9158C80.6087 86.1107 81.1144 86.2107 81.625 86.21ZM62.435 61.6962C62.3745 61.68 62.3125 61.6699 62.25 61.6662L55.3475 61.22L51.1375 60.0675V50.5325L59.405 46.6575C61.1251 45.8558 63.0681 45.6678 64.91 46.125L70.2087 47.4437C71.5313 47.7733 72.7523 48.4238 73.7638 49.3375L77.675 52.8825L75.2787 55.2762L72.765 53.0975C72.4705 52.8428 72.1143 52.6697 71.732 52.5956C71.3497 52.5215 70.9547 52.5488 70.5863 52.675L66.69 54.015C66.2844 54.1547 65.9279 54.4088 65.6634 54.7466C65.3989 55.0845 65.2378 55.4915 65.1995 55.9188C65.1612 56.3461 65.2473 56.7754 65.4474 57.1549C65.6476 57.5343 65.9532 57.8478 66.3275 58.0575L67.3363 58.6212L71.7687 61.1012C72.065 61.2664 72.2979 61.5254 72.4309 61.8374C72.564 62.1493 72.5896 62.4967 72.5037 62.8248C72.4179 63.1529 72.2254 63.4432 71.9566 63.6501C71.6878 63.8569 71.3579 63.9686 71.0187 63.9675C70.8832 63.9678 70.7482 63.9497 70.6175 63.9137L62.435 61.6962ZM73.9487 56.605L71.6588 58.8912L67.2425 56.4212C67.1839 56.3883 67.1361 56.3391 67.1048 56.2796C67.0735 56.22 67.0601 56.1527 67.0661 56.0858C67.0722 56.0188 67.0975 55.955 67.139 55.9021C67.1805 55.8492 67.2364 55.8094 67.3 55.7875L71.195 54.4475C71.253 54.428 71.3151 54.424 71.3752 54.4359C71.4352 54.4477 71.4912 54.475 71.5375 54.515L73.9487 56.605ZM65.65 68.375C65.6495 68.1107 65.7013 67.8488 65.8026 67.6047C65.9039 67.3605 66.0525 67.1388 66.24 66.9525L68.0387 65.155L70.1313 65.7237C70.8712 65.9255 71.6577 65.8715 72.3632 65.5705C73.0686 65.2695 73.6518 64.7391 74.0182 64.0653C74.3846 63.3915 74.5128 62.6137 74.382 61.8579C74.2512 61.1022 73.8691 60.4127 73.2975 59.9012L80.1987 53.0125C80.5774 52.635 81.0903 52.423 81.625 52.423C82.1597 52.423 82.6726 52.635 83.0513 53.0125L97.01 66.9562C97.197 67.143 97.3454 67.3649 97.4467 67.6091C97.5479 67.8533 97.6 68.115 97.6 68.3794C97.6 68.6437 97.5479 68.9055 97.4467 69.1497C97.3454 69.3939 97.197 69.6157 97.01 69.8025L83.0513 83.75C82.6726 84.1275 82.1597 84.3395 81.625 84.3395C81.0903 84.3395 80.5774 84.1275 80.1987 83.75L66.24 69.8025C66.0519 69.6155 65.9029 69.3931 65.8016 69.148C65.7003 68.9029 65.6488 68.6402 65.65 68.375ZM86.735 64.3575C86.5797 64.1634 86.3536 64.039 86.1065 64.0116C85.8595 63.9841 85.6116 64.056 85.4175 64.2112L76.7337 71.1675C76.5396 71.323 76.4153 71.5492 76.3879 71.7964C76.3606 72.0436 76.4326 72.2915 76.5881 72.4856C76.7436 72.6797 76.9698 72.8041 77.217 72.8314C77.4642 72.8587 77.7121 72.7867 77.9062 72.6312L86.59 65.675C86.7828 65.5196 86.9062 65.2942 86.9334 65.048C86.9606 64.8019 86.8892 64.555 86.735 64.3612V64.3575ZM78.0775 67.1075C78.1813 67.1185 78.2856 67.1239 78.39 67.1237C79.1134 67.1206 79.8071 66.8354 80.3235 66.3289C80.84 65.8223 81.1386 65.1343 81.1558 64.4111C81.173 63.6879 80.9075 62.9865 80.4157 62.4559C79.9239 61.9254 79.2446 61.6076 78.5221 61.57C77.7997 61.5325 77.0911 61.7781 76.5469 62.2548C76.0027 62.7314 75.6659 63.4015 75.608 64.1226C75.5501 64.8437 75.7757 65.559 76.2368 66.1164C76.698 66.6737 77.3583 67.0293 78.0775 67.1075ZM77.4725 64.2325C77.4893 64.0829 77.5428 63.9398 77.628 63.8158C77.7133 63.6918 77.8278 63.5907 77.9615 63.5215C78.0951 63.4522 78.2437 63.417 78.3942 63.4188C78.5447 63.4206 78.6925 63.4595 78.8244 63.532C78.9562 63.6045 79.0683 63.7084 79.1505 63.8345C79.2327 63.9605 79.2826 64.1049 79.2957 64.2549C79.3089 64.4048 79.2849 64.5556 79.2259 64.6941C79.1669 64.8326 79.0747 64.9544 78.9575 65.0487C78.8159 65.162 78.6439 65.2307 78.4633 65.2462C78.2827 65.2618 78.1015 65.2235 77.9426 65.1362C77.7837 65.0488 77.6543 64.9164 77.5706 64.7556C77.487 64.5947 77.4528 64.4127 77.4725 64.2325Z" fill="white" stroke="white" stroke-width="0.5"/>
</g>
<rect x="8" y="8" width="136" height="136" rx="68" stroke="white" stroke-width="16"/>
<defs>
<clipPath id="clip0_1_245">
<rect width="64" height="64" fill="white" transform="translate(44 44)"/>
</clipPath>
</defs>
</svg>
