<svg width="33" height="50" viewBox="0 0 33 50" fill="none" xmlns="http://www.w3.org/2000/svg">
<path d="M24.5248 14.7485C25.7461 15.9169 26.2606 17.5853 26.2611 19.2437C26.2623 21.2269 25.5909 23.1822 24.6259 24.8929C23.4702 26.9256 21.8912 28.6847 19.9955 30.0512C18.3317 31.2489 16.3942 32.1645 14.3476 32.426C12.6787 32.6376 10.8972 32.3924 9.52824 31.3487C8.19695 30.3391 7.50421 28.7632 7.37308 27.1253C7.21869 25.1906 7.76269 23.2348 8.61548 21.517C9.65807 19.4503 11.131 17.6323 12.9353 16.185C14.5687 14.8632 16.4998 13.8249 18.5752 13.4049C20.2462 13.0686 22.083 13.1445 23.5843 14.0347C23.9227 14.2364 24.2376 14.4752 24.5234 14.7466C24.621 14.8375 24.8426 14.5731 24.7409 14.4766C23.466 13.2698 21.7034 12.8348 19.9888 12.9364C17.9125 13.0591 15.9081 13.8887 14.1812 15.0134C12.1737 16.3289 10.4695 18.0572 9.18145 20.0838C8.07639 21.8433 7.25757 23.8688 7.10689 25.961C6.98309 27.6683 7.33082 29.4509 8.45118 30.7944C9.57153 32.138 11.2435 32.7565 12.9423 32.7939C14.9734 32.8387 16.9731 32.14 18.7118 31.1414C20.7794 29.937 22.5631 28.3011 23.942 26.3445C25.1777 24.6017 26.1167 22.5905 26.4262 20.4615C26.6755 18.7402 26.4948 16.8733 25.5119 15.3969C25.2901 15.0646 25.0327 14.7576 24.7443 14.4813C24.6459 14.3853 24.4234 14.6503 24.5248 14.7485Z" fill="#4A3AFF"/>
<path d="M26.9216 15.5687C28.0911 17.1759 28.3354 19.2185 27.9725 21.1328C27.5359 23.4559 26.3238 25.5784 24.8127 27.3626C23.0408 29.441 20.8472 31.1177 18.3768 32.2819C16.2043 33.3082 13.7787 33.9415 11.3631 33.8154C9.39912 33.706 7.40812 33.0374 6.04518 31.5567C4.71987 30.1158 4.26225 28.1411 4.46239 26.2306C4.6999 23.9478 5.76836 21.7966 7.1369 19.9871C8.79858 17.818 10.9071 16.0328 13.32 14.7519C15.4777 13.5973 17.9009 12.8254 20.3615 12.7798C22.3624 12.7478 24.4534 13.2261 26.0007 14.5699C26.344 14.8673 26.6529 15.2023 26.9216 15.5687C27.0286 15.7157 27.2787 15.4807 27.184 15.3505C25.9704 13.6924 24.0528 12.8128 22.0575 12.5543C19.6654 12.2449 17.2097 12.7583 15.0007 13.6579C12.4062 14.7275 10.0717 16.3402 8.15322 18.3881C6.46579 20.1889 5.07917 22.3639 4.4513 24.7675C3.94298 26.7174 3.96625 28.8721 4.97938 30.6647C5.97102 32.42 7.76315 33.5097 9.69206 33.9183C12.0055 34.408 14.4463 34.0545 16.6581 33.2903C19.2891 32.3577 21.688 30.8707 23.693 28.9294C25.5064 27.1802 27.0274 25.0564 27.8482 22.6571C28.5151 20.7093 28.6974 18.5095 27.8748 16.5726C27.6915 16.1422 27.4604 15.7338 27.1858 15.3549C27.0754 15.2032 26.8269 15.4385 26.9216 15.5687Z" fill="#4A3AFF"/>
<path d="M26.9216 15.5687C28.0911 17.1759 28.3354 19.2185 27.9725 21.1328C27.5359 23.4559 26.3238 25.5784 24.8127 27.3626C23.0408 29.441 20.8472 31.1177 18.3768 32.2819C16.2043 33.3082 13.7787 33.9415 11.3631 33.8154C9.39912 33.706 7.40812 33.0374 6.04518 31.5567C4.71987 30.1158 4.26225 28.1411 4.46239 26.2306C4.6999 23.9478 5.76836 21.7966 7.1369 19.9871C8.79858 17.818 10.9071 16.0328 13.32 14.7519C15.4777 13.5973 17.9009 12.8254 20.3615 12.7798C22.3624 12.7478 24.4534 13.2261 26.0007 14.5699C26.344 14.8673 26.6529 15.2023 26.9216 15.5687ZM26.9216 15.5687C27.0286 15.7157 27.2787 15.4807 27.184 15.3505C25.9704 13.6924 24.0528 12.8128 22.0575 12.5543C19.6654 12.2449 17.2097 12.7583 15.0007 13.6579C12.4062 14.7275 10.0717 16.3402 8.15322 18.3881C6.46579 20.1889 5.07917 22.3639 4.4513 24.7675C3.94298 26.7174 3.96625 28.8721 4.97938 30.6647C5.97102 32.42 7.76315 33.5097 9.69206 33.9183C12.0055 34.408 14.4463 34.0545 16.6581 33.2903C19.2891 32.3577 21.688 30.8707 23.693 28.9294C25.5064 27.1802 27.0274 25.0564 27.8482 22.6571C28.5151 20.7093 28.6974 18.5095 27.8748 16.5726C27.6915 16.1422 27.4604 15.7338 27.1858 15.3549C27.0754 15.2032 26.8269 15.4385 26.9216 15.5687ZM24.5248 14.7485C25.7461 15.9169 26.2606 17.5853 26.2611 19.2437C26.2623 21.2269 25.5909 23.1822 24.6259 24.8929C23.4702 26.9256 21.8912 28.6847 19.9955 30.0512C18.3317 31.2489 16.3942 32.1645 14.3476 32.426C12.6787 32.6376 10.8972 32.3924 9.52824 31.3487C8.19695 30.3391 7.50421 28.7632 7.37308 27.1253C7.21869 25.1906 7.76269 23.2348 8.61548 21.517C9.65807 19.4503 11.131 17.6323 12.9353 16.185C14.5687 14.8632 16.4998 13.8249 18.5752 13.4049C20.2462 13.0686 22.083 13.1445 23.5843 14.0347C23.9227 14.2364 24.2376 14.4752 24.5234 14.7466C24.621 14.8375 24.8426 14.5731 24.7409 14.4766C23.466 13.2698 21.7034 12.8348 19.9888 12.9364C17.9125 13.0591 15.9081 13.8887 14.1812 15.0134C12.1737 16.3289 10.4695 18.0572 9.18145 20.0838C8.07639 21.8433 7.25757 23.8688 7.10689 25.961C6.98309 27.6683 7.33082 29.4509 8.45118 30.7944C9.57153 32.138 11.2435 32.7565 12.9423 32.7939C14.9734 32.8387 16.9731 32.14 18.7118 31.1414C20.7794 29.937 22.5631 28.3011 23.942 26.3445C25.1777 24.6017 26.1167 22.5905 26.4262 20.4615C26.6755 18.7402 26.4948 16.8733 25.5119 15.3969C25.2901 15.0646 25.0327 14.7576 24.7443 14.4813C24.6459 14.3853 24.4234 14.6504 24.5248 14.7485Z" stroke="#FF981F"/>
</svg>
